<svg width="600" height="69" viewBox="0 0 600 69" fill="none" xmlns="http://www.w3.org/2000/svg">
<path fill-rule="evenodd" clip-rule="evenodd" d="M216.16 0.31546H562.09C572.144 0.31546 581.787 3.91161 588.896 10.3128C596.006 16.714 600 25.3959 600 34.4485C600 43.5012 596.006 52.1831 588.896 58.5842C581.787 64.9854 572.144 68.5816 562.09 68.5816H216.16C206.106 68.5816 196.464 64.9854 189.354 58.5842C182.245 52.1831 178.25 43.5012 178.25 34.4485V34.4485C178.25 25.3959 182.245 16.714 189.354 10.3128C196.464 3.91161 206.106 0.31546 216.16 0.31546V0.31546Z" fill="black"/>
<path fill-rule="evenodd" clip-rule="evenodd" d="M37.8404 0.31546H383.134C393.17 0.31546 402.795 3.91161 409.891 10.3128C416.988 16.714 420.974 25.3959 420.974 34.4485C420.974 43.5012 416.988 52.1831 409.891 58.5842C402.795 64.9854 393.17 68.5816 383.134 68.5816H37.8404C27.8045 68.5816 18.1796 64.9854 11.0832 58.5842C3.98674 52.1831 0 43.5012 0 34.4485V34.4485C0 25.3959 3.98674 16.714 11.0832 10.3128C18.1796 3.91161 27.8045 0.31546 37.8404 0.31546V0.31546Z" fill="black"/>
<path d="M158.912 24.2987L149.957 44.5712H144.115L139.711 28.3912C139.665 28.0056 139.52 27.6385 139.29 27.3261C139.059 27.0136 138.752 26.7666 138.397 26.6094C136.654 25.819 134.824 25.24 132.944 24.8847L133.077 24.2958H142.481C143.082 24.2837 143.667 24.4847 144.134 24.8631C144.6 25.2414 144.918 25.7728 145.03 26.363L147.358 38.0963L153.108 24.2987H158.912ZM181.802 37.9519C181.825 32.6006 174.003 32.3062 174.057 29.9174C174.073 29.1903 174.805 28.4181 176.401 28.2198C178.265 28.05 180.141 28.3625 181.85 29.1272L182.819 24.8275C181.159 24.2365 179.41 23.9328 177.648 23.9292C172.186 23.9292 168.342 26.6845 168.307 30.6325C168.272 33.5501 171.052 35.1786 173.145 36.1491C175.299 37.1436 176.021 37.7806 176.011 38.667C175.998 40.0281 174.295 40.6261 172.705 40.6501C170.737 40.6937 168.787 40.2542 167.028 39.3701L166.027 43.811C167.995 44.5339 170.077 44.8983 172.173 44.8867C177.987 44.8867 181.784 42.1644 181.803 37.9519L181.802 37.9519ZM196.226 44.5712H201.336L196.875 24.2987H192.157C191.662 24.2885 191.175 24.4241 190.757 24.6885C190.339 24.953 190.007 25.3346 189.804 25.786L181.514 44.5712H187.318L188.471 41.5425H195.561L196.226 44.5712ZM190.06 37.3871L192.97 29.7732L194.646 37.3871H190.06ZM166.809 24.2987L162.24 44.5712H156.715L161.287 24.2987H166.809Z" fill="white"/>
<path d="M277.188 14.2943L213.446 14.3005V55.2299H277.419L277.415 14.2943H277.188ZM276.957 14.7582V54.7656H213.908L213.906 14.7596L276.957 14.7582Z" fill="black"/>
<path d="M274.593 27.2579C274.593 27.0956 274.481 27.0068 274.285 27.0068H274.023V27.8208H274.217V27.5051L274.445 27.8208H274.682L274.415 27.4852C274.467 27.4744 274.513 27.4457 274.545 27.4041C274.578 27.3625 274.595 27.3107 274.593 27.2579V27.2579ZM274.324 26.7027C274.183 26.7009 274.045 26.741 273.927 26.8178C273.809 26.8947 273.717 27.0049 273.662 27.1345C273.607 27.264 273.591 27.407 273.618 27.5453C273.644 27.6835 273.711 27.8108 273.81 27.911C273.909 28.0112 274.035 28.0797 274.173 28.1078C274.311 28.1359 274.454 28.1223 274.584 28.0689C274.714 28.0154 274.825 27.9244 274.904 27.8075C274.982 27.6905 275.024 27.5529 275.024 27.4122C275.025 27.2252 274.952 27.0455 274.821 26.9125C274.689 26.7795 274.511 26.704 274.324 26.7027H274.324ZM274.321 27.9952C274.205 27.9993 274.09 27.9687 273.992 27.9072C273.893 27.8458 273.815 27.7562 273.768 27.6501C273.721 27.544 273.706 27.4262 273.726 27.3118C273.746 27.1974 273.8 27.0916 273.881 27.008C273.961 26.9245 274.065 26.8669 274.179 26.8428C274.292 26.8186 274.411 26.829 274.518 26.8725C274.626 26.9161 274.718 26.9908 274.783 27.0872C274.848 27.1835 274.882 27.2971 274.882 27.4132C274.885 27.5648 274.827 27.711 274.722 27.82C274.616 27.9291 274.472 27.992 274.321 27.9952H274.321ZM274.25 27.369H274.217V27.1562H274.252C274.348 27.1562 274.398 27.1908 274.398 27.2609C274.398 27.3328 274.348 27.369 274.25 27.369H274.25Z" fill="#231F20"/>
<g style="mix-blend-mode:multiply">
<path d="M251.976 31.4723C251.976 32.4658 251.682 33.4369 251.13 34.2629C250.578 35.0889 249.794 35.7327 248.876 36.1128C247.959 36.493 246.949 36.5924 245.975 36.3985C245.001 36.2047 244.107 35.7262 243.405 35.0237C242.703 34.3212 242.224 33.4262 242.031 32.4518C241.837 31.4774 241.936 30.4675 242.316 29.5496C242.696 28.6318 243.34 27.8473 244.166 27.2954C244.991 26.7435 245.962 26.4489 246.955 26.4489C248.287 26.4489 249.564 26.9782 250.506 27.9203C251.447 28.8624 251.976 30.1401 251.976 31.4723Z" fill="#F48024"/>
</g>
<path d="M98.1545 18.5718H80.7719V49.8216H98.1545V18.5718Z" fill="#FF5F00"/>
<path d="M81.8757 34.1968C81.8729 31.1872 82.5546 28.2164 83.8692 25.5094C85.1838 22.8023 87.0967 20.4299 89.4633 18.5718C86.5326 16.2674 83.0131 14.8342 79.3068 14.4363C75.6005 14.0383 71.8571 14.6916 68.5044 16.3214C65.1516 17.9512 62.3249 20.4918 60.3473 23.6528C58.3697 26.8138 57.3209 30.4677 57.3209 34.1968C57.3209 37.9259 58.3697 41.5797 60.3473 44.7407C62.3249 47.9017 65.1516 50.4423 68.5044 52.0721C71.8571 53.702 75.6005 54.3552 79.3068 53.9572C83.0131 53.5593 86.5326 52.1262 89.4633 49.8217C87.0968 47.9636 85.1838 45.5912 83.8692 42.8842C82.5547 40.1771 81.873 37.2063 81.8757 34.1968V34.1968Z" fill="#EB001B"/>
<path d="M121.605 34.1967C121.605 37.9257 120.556 41.5796 118.579 44.7406C116.601 47.9016 113.774 50.4422 110.422 52.072C107.069 53.7019 103.326 54.3551 99.6196 53.9572C95.9133 53.5592 92.3938 52.1261 89.4633 49.8216C91.8277 47.9617 93.7392 45.5889 95.0535 42.8823C96.3679 40.1756 97.0508 37.2058 97.0508 34.1967C97.0508 31.1876 96.3679 28.2178 95.0535 25.5111C93.7392 22.8045 91.8277 20.4317 89.4633 18.5718C92.3938 16.2673 95.9133 14.8342 99.6196 14.4362C103.326 14.0383 107.069 14.6915 110.422 16.3214C113.774 17.9512 116.601 20.4918 118.579 23.6528C120.556 26.8138 121.605 30.4677 121.605 34.1967V34.1967Z" fill="#F79E1B"/>
<path d="M119.709 46.5118V45.872H119.967V45.7416H119.311V45.872H119.569V46.5118H119.709ZM120.984 46.5118V45.7404H120.783L120.551 46.271L120.32 45.7404H120.118V46.5118H120.26V45.9299L120.478 46.4316H120.625L120.842 45.9286V46.5117L120.984 46.5118Z" fill="#F79E1B"/>
<path d="M222.126 44.4076V35.2671L214.069 39.9055L222.126 44.4076Z" fill="white"/>
<path d="M256.844 26.2632C256.551 25.3082 256.258 24.4897 255.818 23.5347C255.818 23.5347 255.819 23.3983 255.672 23.3983C255.233 22.4434 254.646 21.6248 253.914 20.8063C251.277 17.5321 247.176 15.4857 242.488 15.4857C241.902 15.4857 241.462 15.4857 240.876 15.6221C240.29 15.6221 239.705 15.7587 239.265 15.8951C238.24 16.1679 237.214 16.4407 236.189 16.9864C235.896 17.1228 235.749 17.2593 235.456 17.2593C234.285 17.805 233.259 18.6235 232.38 19.5784C231.648 20.2605 230.915 21.0792 230.329 22.0341C230.183 22.1705 230.183 22.3069 230.036 22.4433C230.036 22.4433 230.036 22.5798 229.89 22.5798C229.743 22.8527 229.597 23.2619 229.304 23.5347C228.571 24.899 228.132 26.3997 227.839 28.0368C227.693 28.7189 227.692 29.4008 227.692 29.9465V31.5837V32.675V34.4486V52.4563V53.4114H228.132H236.921V45.226V44.8167V43.316V43.1797V34.4486V34.3122V33.9028V32.4022V32.1294V30.0831C236.921 29.9467 236.921 29.9466 236.921 29.8101C236.921 29.128 237.068 28.4459 237.361 27.9002C238.093 25.8539 240.144 24.4896 242.341 24.4896C242.634 24.4896 242.927 24.4898 243.22 24.6262C245.125 24.899 246.736 26.2632 247.468 28.1731C247.615 28.7188 247.762 29.2644 247.762 29.9465C247.762 30.7651 247.615 31.4473 247.322 32.1294C246.883 33.0844 246.15 33.9029 245.125 34.4486C244.392 34.8578 243.66 35.1307 242.781 35.1307V37.4498V37.5864V40.0419V44.2709C246.297 44.1345 249.666 42.9067 252.156 40.724C254.647 38.5412 256.404 35.54 256.99 32.1294C256.99 31.8566 257.137 31.5836 257.137 31.3108C257.137 30.9015 257.137 30.3558 257.137 29.8101C257.283 28.7188 257.137 27.491 256.844 26.2632Z" fill="white"/>
<path d="M310.642 39.0359C308.11 49.1945 297.825 55.3769 287.67 52.8436C277.518 50.311 271.338 40.0214 273.871 29.8633C276.402 19.7035 286.686 13.5205 296.839 16.0532C306.994 18.5859 313.174 28.8767 310.642 39.0359V39.0359Z" fill="#F7931A"/>
<path d="M300.614 31.7472C300.991 29.224 299.071 27.8676 296.445 26.9627L297.297 23.5447L295.217 23.0262L294.388 26.3541C293.841 26.2178 293.279 26.0893 292.721 25.9619L293.556 22.612L291.478 22.0935L290.626 25.5103C290.173 25.4072 289.729 25.3053 289.298 25.198L289.3 25.1874L286.432 24.4709L285.879 26.6931C285.879 26.6931 287.422 27.0469 287.389 27.0688C288.231 27.2792 288.384 27.8368 288.358 28.2788L287.388 32.1727C287.446 32.1875 287.521 32.2089 287.604 32.242C287.535 32.2249 287.461 32.2059 287.384 32.1875L286.024 37.6422C285.921 37.8982 285.66 38.2822 285.071 38.1364C285.092 38.1667 283.56 37.759 283.56 37.759L282.527 40.1406L285.234 40.8155C285.737 40.9417 286.23 41.0739 286.716 41.1983L285.855 44.6554L287.933 45.1739L288.785 41.7536C289.353 41.9076 289.904 42.0499 290.443 42.1838L289.593 45.5882L291.673 46.1067L292.534 42.6561C296.08 43.3275 298.747 43.0567 299.869 39.8478C300.774 37.2642 299.824 35.7738 297.958 34.802C299.317 34.4885 300.341 33.5943 300.614 31.7472V31.7472ZM295.862 38.4132C295.219 40.9968 290.871 39.6001 289.461 39.2499L290.603 34.6698C292.013 35.0218 296.534 35.7187 295.862 38.4132ZM296.505 31.7099C295.919 34.0601 292.3 32.866 291.126 32.5733L292.161 28.4193C293.335 28.712 297.116 29.2584 296.505 31.7099Z" fill="white"/>
<path d="M362.919 15.4857C352.102 15.4857 343.533 24.0052 343.533 34.4486C343.533 44.8918 352.243 53.4114 362.919 53.4114C373.595 53.4114 382.305 44.8918 382.305 34.4486C382.445 24.0052 373.595 15.4857 362.919 15.4857ZM362.919 41.4565C358.986 41.4565 355.614 38.296 355.614 34.4486C355.614 30.601 358.845 27.4405 362.919 27.4405C366.993 27.4405 370.224 30.601 370.224 34.4486C370.083 38.296 366.993 41.4565 362.919 41.4565Z" fill="white"/>
<path d="M343.533 21.1198V48.7395H336.649L327.799 21.1198H343.533Z" fill="white"/>
<path d="M523.984 15.4857H398.881V53.4114H523.984V15.4857Z" fill="#036CB5"/>
<path d="M503.012 22.3173C504.984 22.3173 506.859 22.7691 508.542 23.5774C508.806 23.6965 509.072 23.8391 509.335 23.9818L508.181 25.0045L506.451 23.2211L503.47 25.8365L501.714 23.9578L496.232 28.8325L499.742 32.6609L498.372 33.8495L501.834 37.6779L500.464 38.866L505.417 44.3114L508.349 41.6481L510.899 44.5023C510.393 44.8828 509.84 45.264 509.24 45.5963C507.412 46.6187 505.296 47.212 503.037 47.212C496.087 47.212 490.438 41.6253 490.438 34.754C490.413 27.9291 496.064 22.3173 503.012 22.3173ZM500.704 33.9925L503.709 31.3292L506.403 34.3014L503.397 36.9644L500.704 33.9925ZM502.844 39.1288L505.825 36.4419L508.542 39.4138L505.537 42.0773L502.844 39.1288ZM498.565 28.928L501.57 26.2647L504.263 29.2369L501.257 31.9L498.565 28.928ZM504.07 27.5008L506.306 25.5036L508.326 27.715L506.09 29.7359L504.07 27.5008ZM508.062 36.6554L510.297 34.658L512.317 36.8926L510.081 38.8912L508.062 36.6554ZM510.033 41.15L512.269 39.1522L514.288 41.3636L512.052 43.3842L510.033 41.15ZM510.947 30.8773L512.437 29.5456L513.783 31.0204L512.293 32.3517L510.947 30.8773ZM509.023 26.4784L510.514 25.1233L511.861 26.6211L510.369 27.9527L509.023 26.4784ZM512.846 35.2767L514.336 33.9451L515.707 35.4194L514.193 36.7506L512.846 35.2767ZM506.138 31.9714L508.374 29.974L510.393 32.185L508.158 34.1828L506.138 31.9714Z" fill="white"/>
<mask id="mask0_1_109" style="mask-type:alpha" maskUnits="userSpaceOnUse" x="407" y="27" width="14" height="12">
<path d="M407.158 27.4897V38.9831H420.299V27.4897H407.158Z" fill="white"/>
</mask>
<g mask="url(#mask0_1_109)">
<path d="M413.753 30.893H413.639L411.51 38.9831H409.77L407.158 27.4897H408.963L410.769 36.0657H410.882L412.978 27.4897H414.413L416.655 36.0657H416.768L418.412 27.4897H420.299L417.686 38.9831H415.945L413.753 30.893Z" fill="white"/>
</g>
<path d="M422.59 34.0901H426.282C426.202 32.3885 425.379 31.7083 424.508 31.7083C423.525 31.7083 422.767 32.47 422.59 34.0901ZM427.571 37.1386V38.3709C426.846 38.7922 425.879 39.1166 424.717 39.1166C422.009 39.1166 420.897 37.4307 420.897 34.8698C420.897 32.4047 422.138 30.6215 424.557 30.6215C426.572 30.6215 427.814 31.9355 427.814 34.5772V35.177H422.558C422.558 37.1217 423.347 37.9811 425.009 37.9811C425.879 37.9811 426.685 37.6726 427.571 37.1386Z" fill="white"/>
<path d="M431.564 37.8168C432.08 38.0437 432.645 38.0773 433.049 38.0773C434.242 38.0773 435.144 37.3305 435.144 34.7051C435.144 32.6463 434.402 31.9816 433.322 31.9816C432.677 31.9816 432.21 32.1605 431.564 32.5164V37.8168H431.564ZM431.581 31.3172C432.064 31.0587 432.886 30.7171 433.757 30.7171C435.757 30.7171 436.837 32.1111 436.837 34.7051C436.837 37.7367 435.386 39.2118 433.049 39.2118C432.194 39.2118 430.872 38.9361 429.904 38.4163V27.1024L431.581 26.6977V31.3172H431.581Z" fill="white"/>
<path d="M444.094 36.5443H444.175L447.625 27.4825H449.625V38.9767H447.884V30.6438H447.739L444.449 38.9767H443.418L440.127 30.8386H439.983V38.9767H438.532V27.4825H440.483L444.094 36.5443Z" fill="white"/>
<path d="M456.74 34.8693C456.74 32.681 455.854 31.7574 454.757 31.7574C453.694 31.7574 452.774 32.681 452.774 34.8693C452.774 37.0904 453.613 37.9811 454.757 37.9811C455.902 37.9811 456.74 37.0904 456.74 34.8693ZM451.081 34.8693C451.081 32.0314 452.63 30.6215 454.757 30.6215C456.887 30.6215 458.434 32.0314 458.434 34.8693C458.434 37.6407 456.967 39.1166 454.757 39.1166C452.549 39.1166 451.081 37.6407 451.081 34.8693Z" fill="white"/>
<path d="M459.709 31.822C460.435 31.3836 461.967 30.6215 463.821 30.6215C465.756 30.6215 466.48 31.3836 466.48 33.0529V38.9219H464.804V33.4262C464.804 32.1458 464.177 31.9189 463.353 31.9189C462.709 31.9189 461.886 32.2111 461.386 32.5028V38.9219H459.709V31.822H459.709Z" fill="white"/>
<path d="M470.029 34.0901H473.721C473.642 32.3885 472.819 31.7083 471.948 31.7083C470.964 31.7083 470.207 32.47 470.029 34.0901ZM475.011 37.1386V38.3709C474.286 38.7922 473.318 39.1166 472.157 39.1166C469.45 39.1166 468.337 37.4307 468.337 34.8698C468.337 32.4047 469.578 30.6215 471.996 30.6215C474.013 30.6215 475.255 31.9355 475.255 34.5772V35.177H469.998C469.998 37.1217 470.788 37.9811 472.449 37.9811C473.318 37.9811 474.126 37.6726 475.011 37.1386Z" fill="white"/>
<path d="M481.952 30.6215H483.678L480.759 38.7258C479.952 40.963 478.969 42.1303 477.115 42.1303V40.8019C478.212 40.8019 478.889 39.9261 479.276 38.7258L476.18 30.6215H477.954L480.018 36.5869H480.115L481.952 30.6215Z" fill="white"/>
<path d="M424.574 46.454V45.754C425.172 46.0577 425.74 46.2101 426.28 46.2101C426.729 46.2101 427.073 46.1278 427.313 45.9615C427.553 45.7963 427.674 45.573 427.674 45.2906C427.674 45.0084 427.575 44.7967 427.377 44.6558C427.18 44.5152 426.811 44.341 426.272 44.1347C426.085 44.0643 425.965 44.0185 425.911 43.9967C425.858 43.9754 425.754 43.9315 425.599 43.8667C425.444 43.802 425.342 43.7527 425.295 43.7204C425.246 43.6869 425.165 43.6379 425.05 43.5737C424.935 43.5079 424.858 43.45 424.818 43.3994C424.778 43.3473 424.723 43.2815 424.653 43.203C424.584 43.1247 424.537 43.0469 424.513 42.9677C424.489 42.8892 424.466 42.7983 424.445 42.695C424.424 42.5915 424.413 42.4807 424.413 42.3613C424.413 41.9001 424.583 41.5294 424.922 41.247C425.261 40.9655 425.73 40.8244 426.328 40.8244C426.856 40.8244 427.383 40.9218 427.906 41.1172V41.8571C427.398 41.6072 426.891 41.4835 426.384 41.4835C426.026 41.4835 425.759 41.5582 425.583 41.7099C425.406 41.8616 425.318 42.0624 425.318 42.3122C425.318 42.5782 425.406 42.7798 425.583 42.9184C425.759 43.0575 426.074 43.2108 426.528 43.3784C427.308 43.6659 427.844 43.9262 428.138 44.1598C428.432 44.3922 428.579 44.7404 428.579 45.2007C428.579 45.684 428.377 46.0789 427.974 46.3853C427.571 46.6917 427.017 46.8451 426.312 46.8451C425.666 46.8451 425.086 46.7142 424.574 46.454ZM432.724 46.7219H431.963L431.907 46.25C431.447 46.6301 430.988 46.8202 430.529 46.8202C430.145 46.8202 429.847 46.7161 429.636 46.5067C429.425 46.2979 429.32 46.0342 429.32 45.7133C429.32 45.5449 429.35 45.3841 429.412 45.2294C429.473 45.0746 429.575 44.9246 429.716 44.7782C429.858 44.6315 430.071 44.5139 430.357 44.424C430.642 44.334 430.986 44.2895 431.386 44.2895H431.883V44.0699C431.883 43.7066 431.816 43.4592 431.683 43.3256C431.549 43.1926 431.325 43.1262 431.01 43.1262C430.625 43.1262 430.153 43.2855 429.592 43.6063V42.9556C430.169 42.6899 430.735 42.556 431.29 42.556C431.829 42.556 432.203 42.6678 432.411 42.8907C432.62 43.1125 432.724 43.4493 432.724 43.8984V46.7219V46.7219ZM431.891 44.8588H431.466C430.59 44.8588 430.153 45.1221 430.153 45.6484C430.153 45.8335 430.211 45.9663 430.329 46.0509C430.447 46.1352 430.593 46.1768 430.77 46.1768C430.994 46.1768 431.21 46.1225 431.418 46.0137C431.627 45.906 431.784 45.7812 431.891 45.6401V44.8588H431.891ZM434.026 48.3496V43.1511C434.261 42.9716 434.538 42.8273 434.859 42.719C435.179 42.6114 435.494 42.556 435.804 42.556C436.915 42.556 437.47 43.2371 437.47 44.599C437.47 45.3041 437.326 45.8438 437.037 46.2174C436.749 46.5921 436.336 46.7784 435.796 46.7784C435.422 46.7784 435.11 46.6835 434.859 46.4948V48.3496H434.026ZM434.851 43.4268V45.893C434.958 45.9956 435.092 46.072 435.255 46.1238C435.418 46.1753 435.561 46.201 435.684 46.201C435.977 46.201 436.209 46.0864 436.377 45.8559C436.545 45.625 436.629 45.2061 436.629 44.599C436.629 44.1055 436.543 43.7437 436.369 43.5172C436.195 43.2886 435.969 43.1752 435.692 43.1752C435.377 43.1752 435.097 43.2588 434.851 43.4268ZM439.381 42.5978V46.7219H438.548V42.8008L439.381 42.5978ZM438.419 41.4012C438.419 41.2547 438.474 41.1263 438.583 41.0145C438.693 40.9034 438.82 40.8476 438.964 40.8476C439.108 40.8476 439.235 40.9034 439.345 41.0145C439.454 41.1263 439.509 41.2547 439.509 41.4012C439.509 41.5476 439.454 41.6768 439.345 41.7884C439.235 41.8986 439.108 41.9544 438.964 41.9544C438.82 41.9544 438.693 41.8986 438.583 41.7884C438.474 41.6768 438.419 41.5476 438.419 41.4012ZM442.501 46.25C442.886 46.25 443.31 46.1089 443.774 45.8274V46.4457C443.347 46.6955 442.875 46.8202 442.357 46.8202C441.705 46.8202 441.226 46.633 440.919 46.2585C440.612 45.8839 440.458 45.3609 440.458 44.6883C440.458 44.0479 440.616 43.5321 440.931 43.1429C441.246 42.7524 441.694 42.5559 442.276 42.5559C442.789 42.5559 443.187 42.7246 443.47 43.0612C443.753 43.398 443.894 43.8909 443.894 44.5416V44.8431H441.283C441.283 45.3261 441.382 45.6817 441.579 45.9082C441.777 46.1369 442.084 46.25 442.501 46.25ZM442.252 43.102C442.002 43.102 441.79 43.2025 441.619 43.4024C441.449 43.6034 441.342 43.9022 441.299 44.2971H443.133C443.112 43.8962 443.019 43.5973 442.853 43.3994C442.688 43.2009 442.487 43.102 442.252 43.102ZM444.956 46.7219V43.1588C445.612 42.7571 446.293 42.556 446.999 42.556C447.474 42.556 447.813 42.6543 448.016 42.8498C448.219 43.0452 448.32 43.3541 448.32 43.7768V46.7218H447.487V43.9641C447.487 43.6659 447.426 43.465 447.303 43.3625C447.18 43.2588 447.001 43.2077 446.766 43.2077C446.446 43.2077 446.12 43.3057 445.789 43.5008V46.7218H444.956V46.7219ZM450.415 42.7524H451.68L451.48 43.3057H450.415V45.453C450.415 45.9956 450.645 46.2667 451.104 46.2667C451.28 46.2667 451.459 46.229 451.641 46.1528V46.6731C451.39 46.771 451.09 46.8202 450.743 46.8202C450.343 46.8202 450.049 46.7047 449.862 46.4735C449.675 46.244 449.582 45.9412 449.582 45.5661V42.2149L450.415 41.604V42.7524H450.415ZM453.311 42.5978V46.7219H452.478V42.8008L453.311 42.5978ZM452.35 41.4012C452.35 41.2547 452.405 41.1263 452.513 41.0145C452.623 40.9034 452.75 40.8476 452.894 40.8476C453.038 40.8476 453.165 40.9034 453.275 41.0145C453.384 41.1263 453.439 41.2547 453.439 41.4012C453.439 41.5476 453.384 41.6768 453.275 41.7884C453.165 41.8986 453.038 41.9544 452.894 41.9544C452.75 41.9544 452.623 41.8986 452.513 41.7884C452.405 41.6768 452.35 41.5476 452.35 41.4012ZM458.982 42.8821V43.5321C458.582 43.2613 458.176 43.1262 457.765 43.1262C457.556 43.1262 457.386 43.1668 457.252 43.2484C457.118 43.3292 457.052 43.4599 457.052 43.6379C457.052 43.8071 457.125 43.9409 457.272 44.0411C457.419 44.1418 457.65 44.2435 457.965 44.3458C458.141 44.4056 458.273 44.452 458.361 44.4844C458.45 44.5177 458.565 44.572 458.71 44.6474C458.854 44.7237 458.962 44.7989 459.034 44.8755C459.106 44.9516 459.172 45.0514 459.231 45.1766C459.289 45.3013 459.318 45.4391 459.318 45.5911C459.318 45.9657 459.17 46.2638 458.874 46.4863C458.578 46.7087 458.181 46.8203 457.685 46.8203C457.129 46.8203 456.667 46.7009 456.299 46.4615V45.8274C456.768 46.1089 457.198 46.25 457.589 46.25C458.176 46.25 458.469 46.0553 458.469 45.6643C458.469 45.5888 458.452 45.5177 458.417 45.453C458.383 45.3879 458.343 45.3351 458.297 45.2942C458.252 45.2536 458.178 45.2077 458.077 45.1553C457.975 45.1048 457.89 45.0671 457.821 45.0423C457.751 45.0181 457.642 44.9787 457.492 44.9246C457.273 44.8431 457.1 44.7729 456.971 44.7129C456.843 44.6527 456.715 44.5757 456.587 44.4811C456.459 44.3862 456.365 44.2729 456.307 44.1431C456.248 44.0134 456.219 43.8583 456.219 43.6796C456.219 43.4517 456.272 43.257 456.379 43.0946C456.485 42.9308 456.625 42.8142 456.795 42.744C456.966 42.6733 457.122 42.6241 457.264 42.5978C457.405 42.5698 457.546 42.556 457.685 42.556C458.139 42.556 458.571 42.6647 458.982 42.8821ZM463.408 46.7219H462.647L462.591 46.25C462.131 46.6301 461.672 46.8202 461.213 46.8202C460.829 46.8202 460.531 46.7161 460.32 46.5067C460.109 46.2979 460.003 46.0342 460.003 45.7133C460.003 45.5449 460.034 45.3841 460.096 45.2294C460.157 45.0746 460.259 44.9246 460.4 44.7782C460.542 44.6315 460.755 44.5139 461.041 44.424C461.327 44.334 461.67 44.2895 462.07 44.2895H462.567V44.0699C462.567 43.7066 462.5 43.4592 462.367 43.3256C462.233 43.1926 462.009 43.1262 461.694 43.1262C461.309 43.1262 460.836 43.2855 460.276 43.6063V42.9556C460.853 42.6899 461.419 42.556 461.974 42.556C462.514 42.556 462.887 42.6678 463.095 42.8907C463.303 43.1125 463.408 43.4493 463.408 43.8984V46.7219H463.408ZM462.575 44.8588H462.15C461.274 44.8588 460.836 45.1221 460.836 45.6484C460.836 45.8335 460.895 45.9663 461.013 46.0509C461.13 46.1352 461.277 46.1768 461.453 46.1768C461.677 46.1768 461.893 46.1225 462.102 46.0137C462.31 45.906 462.468 45.7812 462.575 45.6401V44.8588H462.575ZM465.503 42.7524H466.768L466.568 43.3057H465.503V45.453C465.503 45.9956 465.732 46.2667 466.191 46.2667C466.367 46.2667 466.546 46.229 466.728 46.1528V46.6731C466.477 46.771 466.178 46.8202 465.83 46.8202C465.43 46.8202 465.137 46.7047 464.95 46.4735C464.763 46.244 464.669 45.9412 464.669 45.5661V42.2149L465.503 41.604V42.7524H465.503Z" fill="#C0DAEC"/>
</svg>
