<svg width="600" height="70" viewBox="0 0 600 70" fill="none" xmlns="http://www.w3.org/2000/svg">
<path fill-rule="evenodd" clip-rule="evenodd" d="M216.16 0.78595H562.09C572.144 0.78595 581.787 4.3821 588.896 10.7833C596.006 17.1845 600 25.8664 600 34.919C600 43.9717 596.006 52.6535 588.896 59.0547C581.787 65.4559 572.144 69.0521 562.09 69.0521H216.16C206.106 69.0521 196.464 65.4559 189.354 59.0547C182.245 52.6535 178.25 43.9717 178.25 34.919V34.919C178.25 25.8664 182.245 17.1845 189.354 10.7833C196.464 4.3821 206.106 0.78595 216.16 0.78595V0.78595Z" fill="white"/>
<path fill-rule="evenodd" clip-rule="evenodd" d="M37.8404 0.78595H383.134C393.17 0.78595 402.795 4.3821 409.891 10.7833C416.988 17.1845 420.974 25.8664 420.974 34.919C420.974 43.9717 416.988 52.6535 409.891 59.0547C402.795 65.4559 393.17 69.0521 383.134 69.0521H37.8404C27.8045 69.0521 18.1796 65.4559 11.0832 59.0547C3.98674 52.6535 0 43.9717 0 34.919V34.919C0 25.8664 3.98674 17.1845 11.0832 10.7833C18.1796 4.3821 27.8045 0.78595 37.8404 0.78595V0.78595Z" fill="white"/>
<path d="M158.912 24.769L149.957 45.0415H144.115L139.711 28.8615C139.665 28.4759 139.52 28.1088 139.29 27.7964C139.059 27.4839 138.752 27.2369 138.397 27.0797C136.654 26.2893 134.824 25.7103 132.944 25.355L133.077 24.7661H142.481C143.082 24.754 143.667 24.955 144.134 25.3334C144.6 25.7117 144.918 26.2431 145.03 26.8333L147.358 38.5666L153.108 24.769H158.912ZM181.802 38.4222C181.825 33.0709 174.003 32.7765 174.057 30.3877C174.073 29.6606 174.805 28.8884 176.401 28.6901C178.265 28.5203 180.141 28.8328 181.85 29.5975L182.819 25.2978C181.159 24.7069 179.41 24.4031 177.648 24.3995C172.186 24.3995 168.342 27.1548 168.307 31.1028C168.272 34.0204 171.052 35.6489 173.145 36.6194C175.299 37.6139 176.021 38.2509 176.011 39.1373C175.998 40.4984 174.295 41.0964 172.705 41.1204C170.737 41.164 168.787 40.7245 167.028 39.8404L166.027 44.2813C167.995 45.0043 170.077 45.3686 172.173 45.357C177.987 45.357 181.784 42.6348 181.803 38.4222L181.802 38.4222ZM196.226 45.0415H201.336L196.875 24.769H192.157C191.662 24.7588 191.175 24.8944 190.757 25.1588C190.339 25.4233 190.007 25.8049 189.804 26.2563L181.514 45.0415H187.318L188.471 42.0128H195.561L196.226 45.0415ZM190.06 37.8574L192.97 30.2435L194.646 37.8574H190.06ZM166.809 24.769L162.24 45.0415H156.715L161.287 24.769H166.809Z" fill="#1434CB"/>
<path d="M274.593 27.7281C274.593 27.5659 274.481 27.4771 274.285 27.4771H274.023V28.291H274.217V27.9754L274.445 28.291H274.682L274.415 27.9555C274.467 27.9447 274.513 27.916 274.545 27.8743C274.578 27.8327 274.595 27.7809 274.593 27.7281V27.7281ZM274.324 27.1729C274.183 27.1711 274.045 27.2112 273.927 27.2881C273.809 27.365 273.717 27.4752 273.662 27.6047C273.607 27.7342 273.591 27.8772 273.618 28.0155C273.644 28.1538 273.711 28.2811 273.81 28.3812C273.909 28.4814 274.035 28.5499 274.173 28.578C274.311 28.6061 274.454 28.5926 274.584 28.5391C274.714 28.4856 274.825 28.3946 274.904 28.2777C274.982 28.1608 275.024 28.0232 275.024 27.8824C275.025 27.6955 274.952 27.5158 274.821 27.3827C274.689 27.2497 274.511 27.1743 274.324 27.1729H274.324ZM274.321 28.4654C274.205 28.4696 274.09 28.439 273.992 28.3775C273.893 28.316 273.815 28.2265 273.768 28.1204C273.721 28.0143 273.706 27.8965 273.726 27.7821C273.746 27.6676 273.8 27.5619 273.881 27.4783C273.961 27.3947 274.065 27.3371 274.179 27.313C274.292 27.2889 274.411 27.2992 274.518 27.3428C274.626 27.3863 274.718 27.4611 274.783 27.5574C274.848 27.6538 274.882 27.7673 274.882 27.8835C274.885 28.035 274.827 28.1812 274.722 28.2903C274.616 28.3993 274.472 28.4623 274.321 28.4654H274.321ZM274.25 27.8392H274.217V27.6265H274.252C274.348 27.6265 274.398 27.6611 274.398 27.7311C274.398 27.803 274.348 27.8392 274.25 27.8392H274.25Z" fill="#231F20"/>
<path d="M98.1545 19.042H80.7719V50.2918H98.1545V19.042Z" fill="#FF5F00"/>
<path d="M81.8757 34.667C81.8729 31.6574 82.5546 28.6867 83.8692 25.9796C85.1838 23.2726 87.0967 20.9002 89.4633 19.0421C86.5326 16.7376 83.0131 15.3045 79.3068 14.9065C75.6005 14.5086 71.8571 15.1618 68.5044 16.7916C65.1516 18.4214 62.3249 20.962 60.3473 24.123C58.3697 27.2841 57.3209 30.9379 57.3209 34.667C57.3209 38.3961 58.3697 42.05 60.3473 45.211C62.3249 48.372 65.1516 50.9126 68.5044 52.5424C71.8571 54.1722 75.6005 54.8255 79.3068 54.4275C83.0131 54.0295 86.5326 52.5964 89.4633 50.2919C87.0968 48.4338 85.1838 46.0614 83.8692 43.3544C82.5547 40.6474 81.873 37.6766 81.8757 34.667V34.667Z" fill="#EB001B"/>
<path d="M121.605 34.667C121.605 38.3961 120.556 42.0499 118.579 45.2109C116.601 48.3719 113.774 50.9125 110.422 52.5423C107.069 54.1722 103.326 54.8254 99.6196 54.4275C95.9133 54.0295 92.3938 52.5964 89.4633 50.2919C91.8277 48.432 93.7392 46.0592 95.0535 43.3526C96.3679 40.646 97.0508 37.6761 97.0508 34.667C97.0508 31.6579 96.3679 28.6881 95.0535 25.9814C93.7392 23.2748 91.8277 20.9021 89.4633 19.0421C92.3938 16.7376 95.9133 15.3045 99.6196 14.9065C103.326 14.5086 107.069 15.1618 110.422 16.7917C113.774 18.4215 116.601 20.9621 118.579 24.1231C120.556 27.2841 121.605 30.938 121.605 34.667V34.667Z" fill="#F79E1B"/>
<path d="M119.709 46.9821V46.3423H119.967V46.212H119.311V46.3423H119.569V46.9821H119.709ZM120.984 46.9821V46.2107H120.783L120.551 46.7413L120.32 46.2107H120.118V46.9821H120.26V46.4003L120.478 46.9019H120.625L120.842 46.399V46.9821L120.984 46.9821Z" fill="#F79E1B"/>
<path d="M222.126 44.8779V35.7375L214.069 40.3759L222.126 44.8779Z" fill="#EA6D6B"/>
<path d="M256.844 26.7336C256.551 25.7787 256.258 24.9601 255.818 24.0052C255.818 24.0052 255.819 23.8688 255.672 23.8688C255.233 22.9138 254.646 22.0952 253.914 21.2767C251.277 18.0026 247.176 15.9562 242.488 15.9562C241.902 15.9562 241.462 15.9561 240.876 16.0926C240.29 16.0926 239.705 16.2291 239.265 16.3655C238.24 16.6384 237.214 16.9111 236.189 17.4568C235.896 17.5932 235.749 17.7297 235.456 17.7297C234.285 18.2754 233.259 19.0939 232.38 20.0489C231.648 20.731 230.915 21.5496 230.329 22.5045C230.183 22.641 230.183 22.7773 230.036 22.9137C230.036 22.9137 230.036 23.0503 229.89 23.0503C229.743 23.3231 229.597 23.7323 229.304 24.0052C228.571 25.3694 228.132 26.8701 227.839 28.5072C227.693 29.1893 227.692 29.8713 227.692 30.417V32.0541V33.1454V34.919V52.9267V53.8818H228.132H236.921V45.6964V45.2871V43.7865V43.6501V34.919V34.7826V34.3733V32.8726V32.5999V30.5535C236.921 30.4171 236.921 30.417 236.921 30.2806C236.921 29.5985 237.068 28.9163 237.361 28.3706C238.093 26.3243 240.144 24.9601 242.341 24.9601C242.634 24.9601 242.927 24.9602 243.22 25.0966C245.125 25.3695 246.736 26.7337 247.468 28.6436C247.615 29.1893 247.762 29.7349 247.762 30.417C247.762 31.2355 247.615 31.9178 247.322 32.5999C246.883 33.5548 246.15 34.3733 245.125 34.919C244.392 35.3283 243.66 35.6011 242.781 35.6011V37.9202V38.0568V40.5123V44.7414C246.297 44.6049 249.666 43.3772 252.156 41.1944C254.647 39.0116 256.404 36.0104 256.99 32.5999C256.99 32.327 257.137 32.054 257.137 31.7812C257.137 31.3719 257.137 30.8263 257.137 30.2806C257.283 29.1892 257.137 27.9614 256.844 26.7336Z" fill="#EA6D6B"/>
<path d="M310.642 39.5063C308.11 49.665 297.825 55.8474 287.67 53.3141C277.518 50.7814 271.338 40.4918 273.871 30.3337C276.402 20.1739 286.686 13.9909 296.839 16.5236C306.994 19.0563 313.174 29.3471 310.642 39.5063V39.5063Z" fill="#F7931A"/>
<path d="M300.614 32.2176C300.991 29.6944 299.071 28.338 296.445 27.4331L297.297 24.0151L295.217 23.4966L294.388 26.8245C293.841 26.6882 293.279 26.5597 292.721 26.4323L293.556 23.0824L291.478 22.5639L290.626 25.9807C290.173 25.8776 289.729 25.7757 289.298 25.6684L289.3 25.6577L286.432 24.9413L285.879 27.1635C285.879 27.1635 287.422 27.5173 287.389 27.5392C288.231 27.7496 288.384 28.3072 288.358 28.7492L287.388 32.6431C287.446 32.6579 287.521 32.6792 287.604 32.7124C287.535 32.6952 287.461 32.6763 287.384 32.6579L286.024 38.1126C285.921 38.3686 285.66 38.7526 285.071 38.6068C285.092 38.6371 283.56 38.2294 283.56 38.2294L282.527 40.611L285.234 41.2859C285.737 41.4121 286.23 41.5443 286.716 41.6687L285.855 45.1258L287.933 45.6443L288.785 42.224C289.353 42.378 289.904 42.5203 290.443 42.6542L289.593 46.0586L291.673 46.5771L292.534 43.1265C296.08 43.7979 298.747 43.527 299.869 40.3182C300.774 37.7346 299.824 36.2442 297.958 35.2724C299.317 34.9589 300.341 34.0647 300.614 32.2176V32.2176ZM295.862 38.8836C295.219 41.4672 290.871 40.0705 289.461 39.7203L290.603 35.1402C292.013 35.4922 296.534 36.1891 295.862 38.8836ZM296.505 32.1803C295.919 34.5305 292.3 33.3364 291.126 33.0437L292.161 28.8897C293.335 29.1824 297.116 29.7288 296.505 32.1803Z" fill="white"/>
<path d="M362.919 15.9562C352.102 15.9562 343.533 24.4757 343.533 34.919C343.533 45.3622 352.243 53.8818 362.919 53.8818C373.595 53.8818 382.305 45.3622 382.305 34.919C382.445 24.4757 373.595 15.9562 362.919 15.9562ZM362.919 41.9269C358.986 41.9269 355.614 38.7665 355.614 34.919C355.614 31.0714 358.845 27.911 362.919 27.911C366.993 27.911 370.224 31.0714 370.224 34.919C370.083 38.7665 366.993 41.9269 362.919 41.9269Z" fill="#8B3FFD"/>
<path d="M343.533 21.5901V49.2099H336.649L327.799 21.5901H343.533Z" fill="#8B3FFD"/>
<path d="M523.984 15.9562H398.881V53.8818H523.984V15.9562Z" fill="#036CB5"/>
<path d="M503.012 22.7878C504.984 22.7878 506.859 23.2396 508.542 24.0479C508.806 24.167 509.072 24.3096 509.335 24.4523L508.181 25.475L506.451 23.6916L503.47 26.307L501.714 24.4283L496.232 29.303L499.742 33.1314L498.372 34.32L501.834 38.1484L500.464 39.3365L505.417 44.7819L508.349 42.1186L510.899 44.9728C510.393 45.3533 509.84 45.7345 509.24 46.0668C507.412 47.0892 505.296 47.6825 503.036 47.6825C496.087 47.6825 490.438 42.0958 490.438 35.2245C490.413 28.3996 496.064 22.7878 503.012 22.7878ZM500.704 34.463L503.709 31.7997L506.403 34.7719L503.396 37.4349L500.704 34.463ZM502.844 39.5992L505.825 36.9124L508.542 39.8843L505.537 42.5477L502.844 39.5992ZM498.565 29.3985L501.57 26.7352L504.263 29.7073L501.257 32.3705L498.565 29.3985ZM504.07 27.9713L506.306 25.9741L508.326 28.1855L506.09 30.2064L504.07 27.9713ZM508.062 37.1259L510.297 35.1285L512.317 37.3631L510.081 39.3617L508.062 37.1259ZM510.033 41.6205L512.269 39.6227L514.288 41.8341L512.052 43.8547L510.033 41.6205ZM510.947 31.3478L512.437 30.0161L513.783 31.4909L512.293 32.8221L510.947 31.3478ZM509.023 26.9489L510.514 25.5938L511.861 27.0916L510.369 28.4232L509.023 26.9489ZM512.846 35.7472L514.336 34.4156L515.707 35.8899L514.193 37.2211L512.846 35.7472ZM506.138 32.4419L508.374 30.4445L510.393 32.6555L508.158 34.6532L506.138 32.4419Z" fill="white"/>
<mask id="mask0_1_408" style="mask-type:alpha" maskUnits="userSpaceOnUse" x="407" y="27" width="14" height="13">
<path d="M407.158 27.9602V39.4535H420.299V27.9602H407.158Z" fill="white"/>
</mask>
<g mask="url(#mask0_1_408)">
<path d="M413.753 31.3635H413.639L411.51 39.4535H409.77L407.158 27.9602H408.963L410.769 36.5361H410.882L412.978 27.9602H414.413L416.655 36.5361H416.767L418.412 27.9602H420.299L417.686 39.4535H415.945L413.753 31.3635Z" fill="white"/>
</g>
<path d="M422.59 34.5606H426.282C426.202 32.859 425.379 32.1788 424.508 32.1788C423.525 32.1788 422.767 32.9405 422.59 34.5606ZM427.571 37.6091V38.8413C426.846 39.2627 425.879 39.5871 424.717 39.5871C422.009 39.5871 420.897 37.9012 420.897 35.3402C420.897 32.8752 422.138 31.092 424.557 31.092C426.572 31.092 427.814 32.4059 427.814 35.0476V35.6475H422.558C422.558 37.5922 423.347 38.4515 425.009 38.4515C425.879 38.4516 426.685 38.143 427.571 37.6091Z" fill="white"/>
<path d="M431.564 38.2871C432.08 38.514 432.645 38.5476 433.049 38.5476C434.242 38.5476 435.144 37.8008 435.144 35.1754C435.144 33.1167 434.402 32.452 433.322 32.452C432.677 32.452 432.21 32.6309 431.564 32.9868V38.2871H431.564ZM431.581 31.7875C432.064 31.529 432.886 31.1874 433.757 31.1874C435.757 31.1874 436.837 32.5815 436.837 35.1754C436.837 38.207 435.386 39.6822 433.049 39.6822C432.194 39.6822 430.872 39.4065 429.904 38.8866V27.5728L431.581 27.1681V31.7875H431.581Z" fill="white"/>
<path d="M444.094 37.0147H444.175L447.625 27.9529H449.625V39.4472H447.884V31.1143H447.739L444.449 39.4472H443.418L440.127 31.3091H439.983V39.4472H438.531V27.9529H440.483L444.094 37.0147Z" fill="white"/>
<path d="M456.74 35.3397C456.74 33.1515 455.854 32.2279 454.757 32.2279C453.694 32.2279 452.774 33.1515 452.774 35.3397C452.774 37.5608 453.613 38.4515 454.757 38.4515C455.902 38.4515 456.74 37.5608 456.74 35.3397ZM451.081 35.3397C451.081 32.5019 452.63 31.092 454.757 31.092C456.886 31.092 458.434 32.5018 458.434 35.3397C458.434 38.1112 456.967 39.5871 454.757 39.5871C452.549 39.5871 451.081 38.1112 451.081 35.3397Z" fill="white"/>
<path d="M459.709 32.2925C460.435 31.8541 461.967 31.092 463.821 31.092C465.756 31.092 466.48 31.8541 466.48 33.5233V39.3924H464.804V33.8966C464.804 32.6163 464.177 32.3894 463.353 32.3894C462.709 32.3894 461.886 32.6816 461.386 32.9733V39.3924H459.709V32.2925H459.709Z" fill="white"/>
<path d="M470.029 34.5606H473.721C473.642 32.859 472.819 32.1788 471.948 32.1788C470.964 32.1788 470.207 32.9405 470.029 34.5606ZM475.011 37.6091V38.8413C474.286 39.2627 473.318 39.5871 472.157 39.5871C469.45 39.5871 468.337 37.9012 468.337 35.3402C468.337 32.8752 469.578 31.092 471.996 31.092C474.013 31.092 475.255 32.4059 475.255 35.0476V35.6475H469.998C469.998 37.5922 470.788 38.4515 472.449 38.4515C473.318 38.4516 474.126 38.143 475.011 37.6091Z" fill="white"/>
<path d="M481.952 31.092H483.678L480.759 39.1962C479.952 41.4335 478.969 42.6008 477.115 42.6008V41.2724C478.212 41.2724 478.889 40.3966 479.276 39.1962L476.18 31.092H477.954L480.018 37.0574H480.115L481.952 31.092Z" fill="white"/>
<path d="M424.574 46.9245V46.2245C425.171 46.5282 425.74 46.6807 426.28 46.6807C426.729 46.6807 427.073 46.5984 427.313 46.4321C427.553 46.2669 427.674 46.0436 427.674 45.7612C427.674 45.479 427.575 45.2673 427.377 45.1264C427.18 44.9858 426.811 44.8116 426.272 44.6053C426.084 44.5349 425.965 44.4891 425.911 44.4673C425.858 44.446 425.754 44.4021 425.599 44.3373C425.444 44.2726 425.342 44.2233 425.295 44.191C425.246 44.1575 425.165 44.1085 425.05 44.0443C424.935 43.9785 424.858 43.9206 424.818 43.87C424.778 43.8179 424.723 43.7521 424.653 43.6736C424.584 43.5953 424.537 43.5175 424.513 43.4383C424.489 43.3597 424.466 43.2689 424.445 43.1656C424.424 43.0621 424.413 42.9512 424.413 42.8319C424.413 42.3706 424.583 42 424.922 41.7175C425.261 41.4361 425.729 41.295 426.328 41.295C426.856 41.295 427.383 41.3924 427.906 41.5878V42.3277C427.398 42.0778 426.891 41.9541 426.384 41.9541C426.026 41.9541 425.759 42.0288 425.583 42.1805C425.406 42.3322 425.318 42.533 425.318 42.7828C425.318 43.0487 425.406 43.2503 425.583 43.389C425.759 43.5281 426.074 43.6813 426.528 43.849C427.308 44.1365 427.844 44.3968 428.138 44.6303C428.432 44.8628 428.579 45.211 428.579 45.6713C428.579 46.1545 428.377 46.5495 427.974 46.8559C427.571 47.1623 427.017 47.3156 426.312 47.3156C425.666 47.3156 425.086 47.1848 424.574 46.9245ZM432.724 47.1924H431.963L431.907 46.7206C431.447 47.1007 430.988 47.2908 430.529 47.2908C430.145 47.2908 429.847 47.1866 429.636 46.9772C429.425 46.7685 429.32 46.5048 429.32 46.1839C429.32 46.0155 429.35 45.8547 429.412 45.7C429.473 45.5452 429.575 45.3952 429.716 45.2487C429.858 45.1021 430.071 44.9844 430.357 44.8945C430.642 44.8046 430.986 44.7601 431.386 44.7601H431.883V44.5405C431.883 44.1771 431.816 43.9297 431.683 43.7962C431.549 43.6632 431.325 43.5968 431.01 43.5968C430.625 43.5968 430.153 43.756 429.592 44.0769V43.4262C430.169 43.1605 430.735 43.0265 431.29 43.0265C431.829 43.0265 432.203 43.1384 432.411 43.3612C432.62 43.5831 432.724 43.9199 432.724 44.369V47.1924V47.1924ZM431.891 45.3294H431.466C430.59 45.3294 430.153 45.5927 430.153 46.119C430.153 46.3041 430.211 46.4369 430.329 46.5215C430.446 46.6058 430.593 46.6474 430.77 46.6474C430.994 46.6474 431.21 46.5931 431.418 46.4843C431.627 46.3765 431.784 46.2518 431.891 46.1107V45.3294H431.891ZM434.026 48.8202V43.6217C434.261 43.4422 434.538 43.2979 434.859 43.1896C435.179 43.082 435.494 43.0265 435.804 43.0265C436.914 43.0265 437.47 43.7076 437.47 45.0696C437.47 45.7746 437.326 46.3144 437.037 46.688C436.749 47.0627 436.336 47.249 435.796 47.249C435.422 47.249 435.11 47.154 434.859 46.9654V48.8202H434.026ZM434.851 43.8974V46.3635C434.958 46.4661 435.092 46.5426 435.255 46.5944C435.418 46.6459 435.561 46.6716 435.684 46.6716C435.977 46.6716 436.209 46.557 436.377 46.3265C436.545 46.0955 436.629 45.6767 436.629 45.0696C436.629 44.576 436.543 44.2143 436.369 43.9878C436.195 43.7591 435.969 43.6458 435.692 43.6458C435.377 43.6458 435.097 43.7294 434.851 43.8974ZM439.381 43.0684V47.1924H438.548V43.2714L439.381 43.0684ZM438.419 41.8717C438.419 41.7253 438.474 41.5969 438.583 41.4851C438.693 41.374 438.82 41.3182 438.964 41.3182C439.108 41.3182 439.235 41.374 439.345 41.4851C439.454 41.5969 439.509 41.7253 439.509 41.8717C439.509 42.0182 439.454 42.1474 439.345 42.259C439.235 42.3691 439.108 42.4249 438.964 42.4249C438.82 42.4249 438.693 42.3691 438.583 42.259C438.474 42.1474 438.419 42.0182 438.419 41.8717ZM442.501 46.7206C442.885 46.7206 443.31 46.5795 443.774 46.298V46.9162C443.347 47.1661 442.875 47.2908 442.357 47.2908C441.705 47.2908 441.226 47.1035 440.919 46.7291C440.612 46.3545 440.458 45.8314 440.458 45.1589C440.458 44.5185 440.616 44.0027 440.931 43.6134C441.246 43.2229 441.694 43.0265 442.276 43.0265C442.789 43.0265 443.187 43.1952 443.47 43.5318C443.753 43.8686 443.894 44.3615 443.894 45.0122V45.3137H441.283C441.283 45.7966 441.382 46.1523 441.579 46.3787C441.777 46.6075 442.084 46.7206 442.501 46.7206ZM442.252 43.5726C442.002 43.5726 441.79 43.6731 441.619 43.873C441.449 44.0739 441.342 44.3728 441.299 44.7676H443.133C443.112 44.3668 443.019 44.0679 442.853 43.87C442.688 43.6715 442.487 43.5726 442.252 43.5726ZM444.956 47.1924V43.6294C445.612 43.2277 446.293 43.0265 446.999 43.0265C447.474 43.0265 447.813 43.1249 448.016 43.3204C448.219 43.5158 448.32 43.8247 448.32 44.2474V47.1924H447.487V44.4347C447.487 44.1365 447.426 43.9355 447.303 43.8331C447.18 43.7294 447.001 43.6782 446.766 43.6782C446.446 43.6782 446.12 43.7763 445.789 43.9713V47.1924H444.956V47.1924ZM450.415 43.223H451.68L451.48 43.7763H450.415V45.9236C450.415 46.4661 450.644 46.7373 451.104 46.7373C451.28 46.7373 451.459 46.6996 451.641 46.6234V47.1437C451.39 47.2416 451.09 47.2908 450.743 47.2908C450.343 47.2908 450.049 47.1753 449.862 46.944C449.675 46.7145 449.582 46.4118 449.582 46.0366V42.6854L450.415 42.0746V43.223H450.415ZM453.311 43.0684V47.1924H452.478V43.2714L453.311 43.0684ZM452.35 41.8717C452.35 41.7253 452.405 41.5969 452.513 41.4851C452.623 41.374 452.75 41.3182 452.894 41.3182C453.038 41.3182 453.165 41.374 453.274 41.4851C453.384 41.5969 453.439 41.7253 453.439 41.8717C453.439 42.0182 453.384 42.1474 453.274 42.259C453.165 42.3691 453.038 42.4249 452.894 42.4249C452.75 42.4249 452.623 42.3691 452.513 42.259C452.405 42.1474 452.35 42.0182 452.35 41.8717ZM458.982 43.3527V44.0027C458.582 43.7318 458.176 43.5968 457.765 43.5968C457.556 43.5968 457.386 43.6374 457.252 43.719C457.118 43.7998 457.052 43.9305 457.052 44.1085C457.052 44.2777 457.125 44.4115 457.272 44.5117C457.419 44.6123 457.65 44.7141 457.965 44.8164C458.141 44.8762 458.273 44.9226 458.361 44.9549C458.45 44.9883 458.565 45.0426 458.71 45.118C458.854 45.1943 458.962 45.2695 459.034 45.346C459.106 45.4222 459.172 45.522 459.231 45.6471C459.289 45.7718 459.318 45.9097 459.318 46.0617C459.318 46.4363 459.17 46.7344 458.874 46.9569C458.578 47.1792 458.181 47.2908 457.685 47.2908C457.129 47.2908 456.667 47.1715 456.299 46.9321V46.298C456.768 46.5795 457.198 46.7206 457.589 46.7206C458.176 46.7206 458.469 46.5259 458.469 46.1349C458.469 46.0594 458.452 45.9883 458.417 45.9236C458.383 45.8585 458.343 45.8057 458.297 45.7648C458.252 45.7242 458.178 45.6783 458.077 45.6259C457.975 45.5754 457.89 45.5377 457.82 45.5128C457.751 45.4886 457.642 45.4493 457.492 45.3952C457.273 45.3137 457.1 45.2435 456.971 45.1835C456.843 45.1233 456.715 45.0463 456.587 44.9517C456.459 44.8568 456.365 44.7435 456.307 44.6137C456.248 44.484 456.219 44.3289 456.219 44.1501C456.219 43.9222 456.272 43.7275 456.379 43.5652C456.485 43.4014 456.625 43.2848 456.795 43.2146C456.966 43.1438 457.122 43.0947 457.264 43.0684C457.405 43.0404 457.546 43.0265 457.685 43.0265C458.139 43.0265 458.571 43.1353 458.982 43.3527ZM463.408 47.1924H462.647L462.591 46.7206C462.131 47.1007 461.672 47.2908 461.213 47.2908C460.829 47.2908 460.531 47.1866 460.32 46.9772C460.109 46.7685 460.003 46.5048 460.003 46.1839C460.003 46.0155 460.034 45.8547 460.096 45.7C460.157 45.5452 460.258 45.3952 460.4 45.2487C460.542 45.1021 460.755 44.9844 461.041 44.8945C461.326 44.8046 461.67 44.7601 462.07 44.7601H462.567V44.5405C462.567 44.1771 462.5 43.9297 462.367 43.7962C462.233 43.6632 462.009 43.5968 461.694 43.5968C461.309 43.5968 460.836 43.756 460.276 44.0769V43.4262C460.853 43.1605 461.419 43.0265 461.974 43.0265C462.514 43.0265 462.887 43.1384 463.095 43.3612C463.303 43.5831 463.408 43.9199 463.408 44.369V47.1924H463.408ZM462.575 45.3294H462.15C461.274 45.3294 460.836 45.5927 460.836 46.119C460.836 46.3041 460.895 46.4369 461.013 46.5215C461.13 46.6058 461.277 46.6474 461.453 46.6474C461.677 46.6474 461.893 46.5931 462.102 46.4843C462.31 46.3765 462.468 46.2518 462.575 46.1107V45.3294H462.575ZM465.503 43.223H466.768L466.568 43.7763H465.503V45.9236C465.503 46.4661 465.732 46.7373 466.191 46.7373C466.367 46.7373 466.546 46.6996 466.728 46.6234V47.1437C466.477 47.2416 466.178 47.2908 465.83 47.2908C465.43 47.2908 465.137 47.1753 464.95 46.944C464.763 46.7145 464.669 46.4118 464.669 46.0366V42.6854L465.503 42.0746V43.223H465.503Z" fill="#C0DAEC"/>
</svg>
