<svg width="600" height="50" viewBox="0 0 600 50" fill="none" xmlns="http://www.w3.org/2000/svg">
<path d="M600 0.560547H443.602V47.9539H600V0.560547Z" fill="#036CB5"/>
<path d="M573.782 9.0976C576.247 9.0976 578.592 9.66224 580.696 10.6723C581.026 10.8212 581.358 10.9993 581.687 11.1777L580.244 12.4557L578.081 10.227L574.354 13.4954L572.159 11.1476L565.306 17.2393L569.694 22.0234L567.981 23.5087L572.31 28.2928L570.597 29.7776L576.789 36.5823L580.454 33.2542L583.642 36.8208C583.01 37.2963 582.319 37.7727 581.568 38.188C579.283 39.4656 576.638 40.207 573.813 40.207C565.125 40.207 558.063 33.2256 558.063 24.639C558.032 16.1103 565.096 9.0976 573.782 9.0976ZM570.896 23.6874L574.654 20.3592L578.021 24.0734L574.263 27.4013L570.896 23.6874ZM573.572 30.1059L577.299 26.7482L580.696 30.4621L576.938 33.7904L573.572 30.1059ZM568.223 17.3586L571.979 14.0304L575.345 17.7446L571.588 21.0726L568.223 17.3586ZM575.105 15.5751L577.9 13.0793L580.426 15.8428L577.63 18.3682L575.105 15.5751ZM580.095 27.0151L582.889 24.5191L585.415 27.3115L582.619 29.809L580.095 27.0151ZM582.559 32.6317L585.355 30.1352L587.878 32.8986L585.084 35.4236L582.559 32.6317ZM583.702 19.7946L585.565 18.1304L587.248 19.9734L585.385 21.6369L583.702 19.7946ZM581.297 14.2974L583.16 12.6041L584.844 14.4758L582.979 16.1398L581.297 14.2974ZM586.076 25.2922L587.939 23.6282L589.652 25.4705L587.759 27.1341L586.076 25.2922ZM577.69 21.1618L580.486 18.6657L583.01 21.4287L580.215 23.9251L577.69 21.1618Z" fill="white"/>
<mask id="mask0_1_214" style="mask-type:alpha" maskUnits="userSpaceOnUse" x="453" y="15" width="18" height="15">
<path d="M453.949 15.5612V29.9238H470.378V15.5612H453.949Z" fill="white"/>
</mask>
<g mask="url(#mask0_1_214)">
<path d="M462.194 19.8141H462.052L459.391 29.9238H457.215L453.949 15.5612H456.207L458.464 26.2781H458.605L461.225 15.5612H463.02L465.822 26.2781H465.963L468.02 15.5612H470.378L467.112 29.9238H464.934L462.194 19.8141Z" fill="white"/>
</g>
<path d="M473.242 23.8094H477.857C477.757 21.683 476.729 20.833 475.64 20.833C474.411 20.833 473.463 21.7849 473.242 23.8094ZM479.47 27.619V29.1588C478.563 29.6853 477.354 30.0908 475.902 30.0908C472.516 30.0908 471.125 27.984 471.125 24.7837C471.125 21.7033 472.677 19.4749 475.701 19.4749C478.22 19.4749 479.773 21.1169 479.773 24.418V25.1677H473.202C473.202 27.5978 474.189 28.6717 476.266 28.6717C477.354 28.6717 478.362 28.2862 479.47 27.619Z" fill="white"/>
<path d="M484.462 28.4663C485.107 28.7498 485.813 28.7918 486.318 28.7918C487.809 28.7918 488.936 27.8586 488.936 24.5778C488.936 22.0051 488.009 21.1745 486.659 21.1745C485.852 21.1745 485.268 21.398 484.462 21.8428V28.4663H484.462ZM484.483 20.3442C485.086 20.0211 486.114 19.5942 487.203 19.5942C489.703 19.5942 491.053 21.3363 491.053 24.5778C491.053 28.3662 489.239 30.2096 486.318 30.2096C485.248 30.2096 483.596 29.8651 482.385 29.2154V15.0772L484.483 14.5715V20.3442H484.483Z" fill="white"/>
<path d="M500.126 26.8761H500.227L504.54 15.5522H507.041V29.9158H504.864V19.5027H504.682L500.569 29.9158H499.28L495.166 19.7461H494.986V29.9158H493.171V15.5522H495.611L500.126 26.8761Z" fill="white"/>
<path d="M515.935 24.7831C515.935 22.0485 514.827 20.8944 513.456 20.8944C512.127 20.8944 510.977 22.0485 510.977 24.7831C510.977 27.5586 512.026 28.6717 513.456 28.6717C514.887 28.6717 515.935 27.5586 515.935 24.7831ZM508.861 24.7831C508.861 21.2367 510.796 19.4749 513.456 19.4749C516.118 19.4749 518.053 21.2367 518.053 24.7831C518.053 28.2464 516.218 30.0908 513.456 30.0908C510.695 30.0908 508.861 28.2464 508.861 24.7831Z" fill="white"/>
<path d="M519.647 20.9751C520.554 20.4273 522.47 19.4749 524.787 19.4749C527.206 19.4749 528.111 20.4273 528.111 22.5132V29.8475H526.017V22.9797C526.017 21.3797 525.232 21.0962 524.202 21.0962C523.397 21.0962 522.368 21.4613 521.743 21.8259V29.8474H519.647V20.9751H519.647Z" fill="white"/>
<path d="M532.549 23.8094H537.164C537.065 21.683 536.036 20.833 534.947 20.833C533.717 20.833 532.771 21.7849 532.549 23.8094ZM538.776 27.619V29.1588C537.87 29.6853 536.66 30.0908 535.209 30.0908C531.824 30.0908 530.433 27.984 530.433 24.7837C530.433 21.7033 531.984 19.4749 535.008 19.4749C537.528 19.4749 539.081 21.1169 539.081 24.418V25.1677H532.509C532.509 27.5978 533.497 28.6717 535.573 28.6717C536.66 28.6717 537.67 28.2862 538.776 27.619Z" fill="white"/>
<path d="M547.454 19.4749H549.611L545.962 29.6023C544.953 32.3981 543.725 33.8568 541.407 33.8568V32.1968C542.779 32.1968 543.624 31.1023 544.109 29.6023L540.238 19.4749H542.456L545.036 26.9295H545.157L547.454 19.4749Z" fill="white"/>
<path d="M475.722 39.2597V38.385C476.469 38.7645 477.181 38.955 477.855 38.955C478.416 38.955 478.846 38.8521 479.146 38.6443C479.447 38.4379 479.598 38.1588 479.598 37.806C479.598 37.4533 479.474 37.1888 479.227 37.0127C478.98 36.837 478.519 36.6193 477.845 36.3615C477.611 36.2736 477.461 36.2164 477.394 36.189C477.327 36.1625 477.197 36.1076 477.003 36.0266C476.81 35.9458 476.683 35.8842 476.623 35.8438C476.563 35.802 476.461 35.7407 476.318 35.6605C476.174 35.5783 476.077 35.5059 476.027 35.4427C475.978 35.3776 475.909 35.2953 475.822 35.1972C475.735 35.0994 475.677 35.0022 475.646 34.9032C475.617 34.805 475.588 34.6915 475.561 34.5624C475.535 34.4331 475.521 34.2946 475.521 34.1454C475.521 33.569 475.734 33.1059 476.157 32.7529C476.582 32.4011 477.167 32.2248 477.915 32.2248C478.576 32.2248 479.234 32.3465 479.888 32.5907V33.5153C479.253 33.203 478.619 33.0485 477.985 33.0485C477.538 33.0485 477.204 33.1418 476.983 33.3314C476.763 33.521 476.653 33.7719 476.653 34.0841C476.653 34.4164 476.763 34.6683 476.983 34.8416C477.204 35.0155 477.598 35.2069 478.166 35.4164C479.14 35.7757 479.811 36.1009 480.178 36.3928C480.545 36.6833 480.729 37.1184 480.729 37.6937C480.729 38.2975 480.477 38.791 479.973 39.174C479.469 39.5569 478.776 39.7485 477.895 39.7485C477.087 39.7485 476.363 39.585 475.722 39.2597ZM485.911 39.5945H484.96L484.89 39.0049C484.315 39.4799 483.741 39.7175 483.167 39.7175C482.687 39.7175 482.315 39.5873 482.051 39.3256C481.787 39.0647 481.655 38.7352 481.655 38.3342C481.655 38.1238 481.693 37.9228 481.77 37.7295C481.847 37.536 481.974 37.3486 482.151 37.1656C482.328 36.9823 482.595 36.8353 482.952 36.723C483.309 36.6105 483.738 36.555 484.239 36.555H484.86V36.2805C484.86 35.8265 484.777 35.5173 484.61 35.3504C484.442 35.1842 484.162 35.1013 483.768 35.1013C483.288 35.1013 482.697 35.3003 481.996 35.7012V34.888C482.717 34.556 483.424 34.3887 484.119 34.3887C484.793 34.3887 485.26 34.5284 485.52 34.8069C485.781 35.0841 485.911 35.505 485.911 36.0663V39.5945V39.5945ZM484.87 37.2664H484.339C483.244 37.2664 482.697 37.5954 482.697 38.2531C482.697 38.4844 482.77 38.6504 482.917 38.756C483.064 38.8614 483.248 38.9134 483.468 38.9134C483.748 38.9134 484.019 38.8455 484.279 38.7096C484.539 38.5749 484.736 38.4191 484.87 38.2428V37.2664H484.87ZM487.539 41.6286V35.1324C487.832 34.9081 488.179 34.7277 488.58 34.5924C488.981 34.4579 489.374 34.3886 489.762 34.3886C491.15 34.3886 491.845 35.2398 491.845 36.9417C491.845 37.8228 491.664 38.4973 491.304 38.9641C490.943 39.4324 490.426 39.6652 489.752 39.6652C489.284 39.6652 488.894 39.5465 488.58 39.3108V41.6286H487.539ZM488.57 35.4769V38.5587C488.704 38.6869 488.872 38.7824 489.076 38.8472C489.279 38.9115 489.458 38.9436 489.611 38.9436C489.978 38.9436 490.267 38.8005 490.478 38.5124C490.688 38.2238 490.793 37.7003 490.793 36.9418C490.793 36.325 490.685 35.8729 490.468 35.5898C490.251 35.3041 489.969 35.1625 489.621 35.1625C489.228 35.1625 488.878 35.2669 488.57 35.4769ZM494.233 34.441V39.5945H493.192V34.6946L494.233 34.441ZM493.031 32.9456C493.031 32.7626 493.1 32.6022 493.236 32.4624C493.374 32.3235 493.532 32.2538 493.712 32.2538C493.893 32.2538 494.051 32.3235 494.188 32.4624C494.325 32.6022 494.393 32.7626 494.393 32.9456C494.393 33.1285 494.325 33.2901 494.188 33.4295C494.051 33.5671 493.893 33.6369 493.712 33.6369C493.532 33.6369 493.374 33.5671 493.236 33.4295C493.1 33.2901 493.031 33.1285 493.031 32.9456ZM498.134 39.0049C498.615 39.0049 499.145 38.8285 499.726 38.4768V39.2494C499.192 39.5616 498.601 39.7175 497.953 39.7175C497.139 39.7175 496.54 39.4834 496.156 39.0155C495.772 38.5474 495.58 37.8938 495.58 37.0533C495.58 36.2531 495.777 35.6085 496.171 35.1221C496.565 34.6341 497.125 34.3886 497.853 34.3886C498.494 34.3886 498.991 34.5994 499.346 35.0201C499.699 35.441 499.876 36.0568 499.876 36.87V37.2468H496.612C496.612 37.8503 496.735 38.2947 496.982 38.5777C497.229 38.8636 497.613 39.0049 498.134 39.0049ZM497.823 35.071C497.51 35.071 497.246 35.1966 497.032 35.4464C496.819 35.6975 496.685 36.071 496.631 36.5644H498.925C498.898 36.0635 498.781 35.69 498.574 35.4427C498.367 35.1946 498.117 35.071 497.823 35.071ZM501.203 39.5945V35.142C502.024 34.64 502.875 34.3886 503.757 34.3886C504.351 34.3886 504.774 34.5116 505.028 34.7558C505.282 35 505.409 35.386 505.409 35.9143V39.5945H504.367V36.1483C504.367 35.7757 504.291 35.5246 504.137 35.3965C503.983 35.2669 503.76 35.2031 503.466 35.2031C503.066 35.2031 502.658 35.3255 502.245 35.5693V39.5945H501.203V39.5945ZM508.027 34.6341H509.61L509.359 35.3256H508.027V38.0089C508.027 38.6869 508.315 39.0257 508.889 39.0257C509.109 39.0257 509.332 38.9786 509.56 38.8835V39.5336C509.246 39.6559 508.872 39.7175 508.438 39.7175C507.937 39.7175 507.57 39.5731 507.336 39.2841C507.103 38.9973 506.986 38.619 506.986 38.1502V33.9624L508.027 33.199V34.6341H508.027ZM511.648 34.441V39.5945H510.606V34.6946L511.648 34.441ZM510.446 32.9456C510.446 32.7626 510.515 32.6022 510.651 32.4624C510.788 32.3235 510.946 32.2538 511.127 32.2538C511.307 32.2538 511.466 32.3235 511.602 32.4624C511.74 32.6022 511.808 32.7626 511.808 32.9456C511.808 33.1285 511.74 33.2901 511.602 33.4295C511.466 33.5671 511.307 33.6369 511.127 33.6369C510.946 33.6369 510.788 33.5671 510.651 33.4295C510.515 33.2901 510.446 33.1285 510.446 32.9456ZM518.738 34.7962V35.6085C518.237 35.27 517.73 35.1013 517.216 35.1013C516.956 35.1013 516.742 35.152 516.575 35.254C516.408 35.3549 516.324 35.5183 516.324 35.7407C516.324 35.9521 516.416 36.1193 516.6 36.2446C516.783 36.3703 517.072 36.4975 517.466 36.6254C517.687 36.7 517.852 36.758 517.962 36.7985C518.072 36.8401 518.217 36.908 518.397 37.0022C518.578 37.0976 518.713 37.1915 518.803 37.2872C518.893 37.3824 518.975 37.507 519.048 37.6635C519.122 37.8193 519.158 37.9916 519.158 38.1815C519.158 38.6496 518.973 39.0222 518.603 39.3002C518.232 39.578 517.736 39.7175 517.116 39.7175C516.421 39.7175 515.843 39.5683 515.383 39.2692V38.4768C515.97 38.8286 516.508 39.0049 516.996 39.0049C517.73 39.0049 518.097 38.7616 518.097 38.273C518.097 38.1786 518.075 38.0897 518.032 38.0089C517.988 37.9276 517.938 37.8616 517.882 37.8105C517.825 37.7597 517.733 37.7023 517.606 37.6369C517.479 37.5738 517.373 37.5266 517.286 37.4956C517.199 37.4654 517.062 37.4162 516.875 37.3486C516.601 37.2468 516.385 37.159 516.224 37.084C516.064 37.0089 515.904 36.9126 515.744 36.7944C515.583 36.6758 515.466 36.5342 515.393 36.372C515.32 36.2099 515.283 36.0161 515.283 35.7927C515.283 35.508 515.35 35.2646 515.483 35.0618C515.617 34.8571 515.791 34.7114 516.004 34.6236C516.217 34.5352 516.413 34.4738 516.59 34.441C516.767 34.4059 516.942 34.3887 517.116 34.3887C517.683 34.3886 518.224 34.5246 518.738 34.7962ZM524.271 39.5945H523.319L523.249 39.0049C522.674 39.4799 522.101 39.7175 521.527 39.7175C521.046 39.7175 520.674 39.5873 520.41 39.3256C520.146 39.0647 520.015 38.7352 520.015 38.3342C520.015 38.1238 520.053 37.9228 520.13 37.7295C520.207 37.536 520.334 37.3486 520.51 37.1656C520.688 36.9823 520.954 36.8353 521.311 36.723C521.669 36.6105 522.098 36.555 522.598 36.555H523.219V36.2805C523.219 35.8265 523.136 35.5173 522.97 35.3504C522.802 35.1842 522.521 35.1013 522.128 35.1013C521.647 35.1013 521.056 35.3003 520.355 35.7012V34.888C521.076 34.556 521.784 34.3887 522.478 34.3887C523.153 34.3887 523.619 34.5284 523.88 34.8069C524.14 35.0841 524.271 35.505 524.271 36.0663V39.5945H524.271ZM523.23 37.2664H522.699C521.604 37.2664 521.056 37.5954 521.056 38.2531C521.056 38.4844 521.13 38.6504 521.276 38.756C521.423 38.8614 521.606 38.9134 521.827 38.9134C522.107 38.9134 522.377 38.8455 522.638 38.7096C522.899 38.5749 523.096 38.4191 523.23 38.2428V37.2664H523.23ZM526.89 34.6341H528.472L528.221 35.3256H526.89V38.0089C526.89 38.6869 527.177 39.0257 527.75 39.0257C527.971 39.0257 528.194 38.9786 528.422 38.8835V39.5336C528.108 39.6559 527.734 39.7175 527.299 39.7175C526.799 39.7175 526.432 39.5731 526.199 39.2841C525.965 38.9973 525.847 38.619 525.847 38.1502V33.9624L526.89 33.199V34.6341H526.89Z" fill="#C0DAEC"/>
<path d="M51.4369 5.75916H27.8501V43.9818H51.4369V5.75916Z" fill="#FF5F00"/>
<path d="M30.2795 24.874C30.2736 17.4165 33.7241 10.3704 39.6367 5.766C29.5921 -2.06621 15.1676 -0.925378 6.5004 8.38674C-2.1668 17.6989 -2.1668 32.0558 6.5004 41.3679C15.1676 50.6801 29.5921 51.8209 39.6367 43.9887C33.7222 39.3828 30.2715 32.3338 30.2795 24.874Z" fill="#EB001B"/>
<path d="M76.4809 40.2047V39.387H76.8183V39.2507H76.0086V39.387H76.346V40.2047H76.4809Z" fill="#F79E1B"/>
<path d="M78.0337 39.2507H77.7638L77.4939 39.9321L77.224 39.2507H76.9541V40.2047H77.1565V39.4552L77.3809 40.0684H77.6288L77.8458 39.4552V40.2047H78.0337V39.2507Z" fill="#F79E1B"/>
<path d="M79.277 24.8739C79.277 34.1803 73.9209 42.6697 65.484 46.7366C57.0471 50.8034 47.0105 49.7338 39.6367 43.9819C45.5467 39.3735 48.9974 32.3284 48.9974 24.8705C48.9974 17.4126 45.5467 10.3675 39.6367 5.75917C47.0105 0.00727021 57.0471 -1.0624 65.484 3.00445C73.9209 7.07131 79.277 15.5607 79.277 24.8671V24.8739Z" fill="#F79E1B"/>
<path d="M140.133 6.9142L124.495 43.5816H114.294L106.599 14.3247C106.133 12.521 105.728 11.8607 104.304 11.1025C101.984 9.8674 98.152 8.70568 94.7867 7.9842L95.0169 6.92031H111.439C113.529 6.92031 115.414 8.28991 115.886 10.6623L119.948 31.8788L129.994 6.92031L140.133 6.9142ZM180.099 31.6159C180.143 21.937 166.483 21.4051 166.576 17.0823C166.607 15.7677 167.882 14.3675 170.669 14.0129C172.05 13.8356 175.863 13.7011 180.18 15.6515L181.878 7.87414C179.558 7.04871 176.566 6.24774 172.852 6.24774C163.317 6.24774 156.599 11.2309 156.543 18.3724C156.48 23.649 161.332 26.5961 164.99 28.3509C168.753 30.1485 170.016 31.3041 169.997 32.906C169.972 35.364 166.999 36.4523 164.219 36.4951C159.367 36.5685 156.555 35.205 154.31 34.1778L152.562 42.212C154.82 43.2269 158.981 44.1135 163.292 44.1624C173.437 44.1624 180.068 39.2343 180.099 31.6159ZM205.292 43.5877H214.218L206.424 6.9142H198.188C196.334 6.9142 194.773 7.97197 194.083 9.60448L179.602 43.5816H189.735L191.744 38.1032H204.129L205.292 43.5877ZM194.524 30.5948L199.606 16.8255L202.53 30.5948H194.524ZM153.918 6.9142L145.937 43.5816H136.289L144.27 6.9142H153.918Z" fill="#1434CB"/>
<path d="M344.314 29.9932C341.149 42.6893 328.29 50.4159 315.592 47.2499C302.9 44.0846 295.173 31.2248 298.34 18.5294C301.504 5.83183 314.363 -1.89558 327.057 1.26974C339.754 4.43507 347.48 17.2963 344.314 29.9932V29.9932Z" fill="#F7931A"/>
<path d="M331.776 20.8838C332.248 17.7303 329.847 16.0351 326.564 14.9042L327.629 10.6324L325.028 9.98437L323.992 14.1436C323.308 13.9732 322.606 13.8125 321.908 13.6533L322.952 9.46669L320.354 8.81866L319.288 13.089C318.722 12.9601 318.167 12.8327 317.628 12.6987L317.631 12.6853L314.045 11.7899L313.353 14.5672C313.353 14.5672 315.282 15.0093 315.241 15.0367C316.294 15.2997 316.485 15.9965 316.453 16.549L315.24 21.4155C315.312 21.434 315.407 21.4607 315.51 21.5022C315.424 21.4807 315.331 21.457 315.235 21.434L313.535 28.2513C313.406 28.5712 313.08 29.0511 312.343 28.8689C312.369 28.9067 310.453 28.3972 310.453 28.3972L309.163 31.3736L312.546 32.2172C313.176 32.3749 313.793 32.5401 314.4 32.6956L313.324 37.0163L315.921 37.6643L316.987 33.3895C317.696 33.5821 318.385 33.7599 319.059 33.9272L317.997 38.182L320.597 38.83L321.673 34.5175C326.107 35.3566 329.442 35.0181 330.845 31.0078C331.976 27.7788 330.789 25.9162 328.456 24.7016C330.155 24.3098 331.435 23.1922 331.776 20.8838V20.8838ZM325.835 29.2148C325.031 32.4438 319.595 30.6982 317.832 30.2605L319.26 24.5364C321.022 24.9763 326.675 25.8473 325.835 29.2148ZM326.639 20.8371C325.906 23.7743 321.381 22.282 319.913 21.9162L321.208 16.7246C322.675 17.0904 327.403 17.7733 326.639 20.8371Z" fill="white"/>
<path d="M404.095 0.560547C390.572 0.560547 379.859 11.2068 379.859 24.2572C379.859 37.3075 390.748 47.9539 404.095 47.9539C417.442 47.9539 428.33 37.3075 428.33 24.2572C428.505 11.2068 417.442 0.560547 404.095 0.560547ZM404.095 33.0146C399.177 33.0146 394.962 29.0652 394.962 24.2572C394.962 19.4492 399.002 15.4997 404.095 15.4997C409.187 15.4997 413.227 19.4492 413.227 24.2572C413.051 29.0652 409.187 33.0146 404.095 33.0146Z" fill="#8B3FFD"/>
<path d="M379.859 7.60095V42.1156H371.253L360.19 7.60095H379.859Z" fill="#8B3FFD"/>
<path d="M239.456 36.7023V25.2801L229.384 31.0764L239.456 36.7023Z" fill="#EA6D6B"/>
<path d="M282.859 14.0285C282.493 12.8351 282.126 11.8122 281.577 10.6189C281.577 10.6189 281.577 10.4484 281.394 10.4484C280.845 9.25508 280.112 8.23216 279.196 7.20929C275.9 3.11778 270.772 0.560547 264.912 0.560547C264.179 0.560547 263.63 0.560505 262.897 0.730985C262.165 0.730985 261.432 0.901589 260.883 1.07207C259.601 1.41303 258.319 1.75386 257.037 2.43578C256.671 2.60626 256.488 2.77686 256.121 2.77686C254.656 3.45878 253.374 4.48157 252.276 5.67493C251.36 6.52733 250.444 7.55029 249.712 8.74364C249.529 8.91412 249.529 9.08448 249.346 9.25496C249.346 9.25496 249.345 9.4256 249.162 9.4256C248.979 9.76656 248.796 10.2779 248.43 10.6189C247.514 12.3237 246.965 14.199 246.599 16.2448C246.415 17.0972 246.415 17.9494 246.415 18.6313V20.6772V22.0409V24.2572V46.7604V47.9539H246.965H257.953V37.7251V37.2136V35.3384V35.168V24.2572V24.0868V23.5753V21.7V21.3592V18.802C257.953 18.6315 257.953 18.6314 257.953 18.4609C257.953 17.6085 258.136 16.7561 258.502 16.0741C259.418 13.5169 261.982 11.8121 264.729 11.8121C265.095 11.8121 265.461 11.8123 265.828 11.9828C268.208 12.3238 270.223 14.0285 271.138 16.4152C271.321 17.0971 271.505 17.7789 271.505 18.6313C271.505 19.6542 271.321 20.5068 270.955 21.3592C270.406 22.5525 269.49 23.5753 268.208 24.2572C267.293 24.7687 266.377 25.1096 265.278 25.1096V28.0077V28.1783V31.2468V36.5317C269.673 36.3612 273.885 34.8269 276.999 32.0992C280.112 29.3716 282.309 25.6211 283.042 21.3592C283.042 21.0182 283.225 20.6771 283.225 20.3361C283.225 19.8247 283.225 19.1428 283.225 18.4609C283.408 17.0971 283.225 15.5628 282.859 14.0285Z" fill="#EA6D6B"/>
</svg>
