<svg width="600" height="51" viewBox="0 0 600 51" fill="none" xmlns="http://www.w3.org/2000/svg">
<path d="M600 2.83575H443.602V50.2291H600V2.83575Z" fill="#036CB5"/>
<path d="M573.782 11.3727C576.247 11.3727 578.592 11.9374 580.696 12.9474C581.026 13.0963 581.358 13.2745 581.687 13.4528L580.244 14.7308L578.081 12.5022L574.354 15.7705L572.159 13.4228L565.306 19.5145L569.694 24.2985L567.981 25.7839L572.31 30.568L570.597 32.0527L576.789 38.8575L580.454 35.5293L583.642 39.096C583.01 39.5715 582.319 40.0479 581.568 40.4632C579.283 41.7407 576.638 42.4822 573.813 42.4822C565.125 42.4822 558.063 35.5007 558.063 26.9141C558.032 18.3855 565.096 11.3727 573.782 11.3727ZM570.896 25.9626L574.654 22.6344L578.021 26.3485L574.263 29.6764L570.896 25.9626ZM573.572 32.381L577.299 29.0234L580.696 32.7372L576.938 36.0656L573.572 32.381ZM568.223 19.6337L571.979 16.3055L575.345 20.0197L571.588 23.3477L568.223 19.6337ZM575.105 17.8503L577.9 15.3544L580.426 18.118L577.63 20.6433L575.105 17.8503ZM580.095 29.2903L582.889 26.7942L585.415 29.5866L582.619 32.0842L580.095 29.2903ZM582.559 34.9068L585.355 32.4103L587.878 35.1737L585.084 37.6987L582.559 34.9068ZM583.702 22.0697L585.565 20.4056L587.248 22.2485L585.385 23.9121L583.702 22.0697ZM581.297 16.5726L583.16 14.8792L584.844 16.7509L582.979 18.4149L581.297 16.5726ZM586.076 27.5673L587.939 25.9033L589.652 27.7457L587.759 29.4092L586.076 27.5673ZM577.69 23.4369L580.486 20.9409L583.01 23.7038L580.215 26.2003L577.69 23.4369Z" fill="white"/>
<mask id="mask0_1_159" style="mask-type:alpha" maskUnits="userSpaceOnUse" x="453" y="17" width="18" height="16">
<path d="M453.949 17.8364V32.199H470.378V17.8364H453.949Z" fill="white"/>
</mask>
<g mask="url(#mask0_1_159)">
<path d="M462.194 22.0893H462.052L459.391 32.199H457.215L453.949 17.8364H456.207L458.464 28.5533H458.605L461.225 17.8364H463.02L465.822 28.5533H465.963L468.02 17.8364H470.378L467.112 32.199H464.934L462.194 22.0893Z" fill="white"/>
</g>
<path d="M473.242 26.0846H477.857C477.757 23.9582 476.729 23.1081 475.64 23.1081C474.411 23.1081 473.463 24.06 473.242 26.0846ZM479.47 29.8941V31.4339C478.563 31.9605 477.354 32.3659 475.902 32.3659C472.516 32.3659 471.125 30.2591 471.125 27.0588C471.125 23.9784 472.677 21.7501 475.701 21.7501C478.22 21.7501 479.773 23.392 479.773 26.6932V27.4428H473.202C473.202 29.873 474.189 30.9469 476.266 30.9469C477.354 30.9469 478.362 30.5613 479.47 29.8941Z" fill="white"/>
<path d="M484.462 30.7415C485.107 31.0251 485.813 31.067 486.318 31.067C487.809 31.067 488.936 30.1338 488.936 26.853C488.936 24.2803 488.009 23.4497 486.659 23.4497C485.852 23.4497 485.268 23.6732 484.462 24.118V30.7415H484.462ZM484.483 22.6194C485.086 22.2963 486.114 21.8695 487.203 21.8695C489.703 21.8695 491.053 23.6115 491.053 26.853C491.053 30.6414 489.239 32.4848 486.318 32.4848C485.248 32.4848 483.596 32.1403 482.385 31.4907V17.3524L484.483 16.8467V22.6194H484.483Z" fill="white"/>
<path d="M500.126 29.1513H500.227L504.54 17.8274H507.041V32.191H504.864V21.7779H504.682L500.569 32.191H499.28L495.166 22.0214H494.986V32.191H493.171V17.8274H495.611L500.126 29.1513Z" fill="white"/>
<path d="M515.935 27.0582C515.935 24.3237 514.827 23.1696 513.456 23.1696C512.127 23.1696 510.977 24.3237 510.977 27.0582C510.977 29.8338 512.026 30.9469 513.456 30.9469C514.887 30.9469 515.935 29.8338 515.935 27.0582ZM508.861 27.0582C508.861 23.5119 510.796 21.7501 513.456 21.7501C516.118 21.7501 518.053 23.5119 518.053 27.0582C518.053 30.5215 516.218 32.3659 513.456 32.3659C510.695 32.3659 508.861 30.5215 508.861 27.0582Z" fill="white"/>
<path d="M519.647 23.2502C520.554 22.7024 522.47 21.7501 524.787 21.7501C527.206 21.7501 528.111 22.7024 528.111 24.7884V32.1226H526.017V25.2549C526.017 23.6549 525.232 23.3713 524.202 23.3713C523.397 23.3713 522.368 23.7365 521.743 24.101V32.1226H519.647V23.2502H519.647Z" fill="white"/>
<path d="M532.549 26.0846H537.164C537.065 23.9582 536.036 23.1081 534.947 23.1081C533.717 23.1081 532.771 24.06 532.549 26.0846ZM538.776 29.8941V31.4339C537.87 31.9605 536.66 32.3659 535.209 32.3659C531.824 32.3659 530.433 30.2591 530.433 27.0588C530.433 23.9784 531.984 21.7501 535.008 21.7501C537.528 21.7501 539.081 23.392 539.081 26.6932V27.4428H532.509C532.509 29.873 533.497 30.9469 535.573 30.9469C536.66 30.9469 537.67 30.5613 538.776 29.8941Z" fill="white"/>
<path d="M547.454 21.7501H549.611L545.962 31.8775C544.953 34.6732 543.725 36.1319 541.407 36.1319V34.4719C542.779 34.4719 543.624 33.3775 544.109 31.8775L540.238 21.7501H542.456L545.036 29.2046H545.157L547.454 21.7501Z" fill="white"/>
<path d="M475.722 41.5349V40.6601C476.469 41.0397 477.181 41.2302 477.855 41.2302C478.416 41.2302 478.846 41.1273 479.146 40.9195C479.447 40.7131 479.598 40.434 479.598 40.0812C479.598 39.7285 479.474 39.4639 479.227 39.2879C478.98 39.1122 478.519 38.8945 477.845 38.6367C477.611 38.5487 477.461 38.4915 477.394 38.4642C477.327 38.4376 477.197 38.3827 477.003 38.3017C476.81 38.2209 476.683 38.1593 476.623 38.1189C476.563 38.0771 476.461 38.0159 476.318 37.9356C476.174 37.8534 476.077 37.7811 476.027 37.7178C475.978 37.6527 475.909 37.5705 475.822 37.4724C475.735 37.3746 475.677 37.2773 475.646 37.1783C475.617 37.0802 475.588 36.9667 475.561 36.8375C475.535 36.7082 475.521 36.5697 475.521 36.4205C475.521 35.8442 475.734 35.381 476.157 35.028C476.582 34.6763 477.167 34.4999 477.915 34.4999C478.576 34.4999 479.234 34.6217 479.888 34.8659V35.7904C479.253 35.4782 478.619 35.3236 477.985 35.3236C477.538 35.3236 477.204 35.4169 476.983 35.6065C476.763 35.7961 476.653 36.047 476.653 36.3592C476.653 36.6915 476.763 36.9435 476.983 37.1167C477.204 37.2906 477.598 37.4821 478.166 37.6916C479.14 38.0509 479.811 38.3761 480.178 38.668C480.545 38.9585 480.729 39.3935 480.729 39.9688C480.729 40.5727 480.477 41.0662 479.973 41.4491C479.469 41.832 478.776 42.0236 477.895 42.0236C477.087 42.0236 476.363 41.8601 475.722 41.5349ZM485.911 41.8697H484.96L484.89 41.28C484.315 41.755 483.741 41.9926 483.167 41.9926C482.687 41.9926 482.315 41.8624 482.051 41.6008C481.787 41.3399 481.655 41.0103 481.655 40.6094C481.655 40.399 481.693 40.1979 481.77 40.0046C481.847 39.8112 481.974 39.6237 482.151 39.4408C482.328 39.2575 482.595 39.1105 482.952 38.9981C483.309 38.8857 483.738 38.8301 484.239 38.8301H484.86V38.5557C484.86 38.1016 484.777 37.7925 484.61 37.6255C484.442 37.4594 484.162 37.3764 483.768 37.3764C483.288 37.3764 482.697 37.5754 481.996 37.9764V37.1632C482.717 36.8312 483.424 36.6638 484.119 36.6638C484.793 36.6638 485.26 36.8036 485.52 37.0821C485.781 37.3593 485.911 37.7801 485.911 38.3414V41.8697V41.8697ZM484.87 39.5415H484.339C483.244 39.5415 482.697 39.8706 482.697 40.5282C482.697 40.7595 482.77 40.9255 482.917 41.0312C483.064 41.1366 483.248 41.1885 483.468 41.1885C483.748 41.1885 484.019 41.1207 484.279 40.9848C484.539 40.8501 484.736 40.6943 484.87 40.5179V39.5415H484.87ZM487.539 43.9038V37.4076C487.832 37.1832 488.179 37.0029 488.58 36.8676C488.981 36.7331 489.374 36.6638 489.762 36.6638C491.15 36.6638 491.845 37.5149 491.845 39.2169C491.845 40.0979 491.664 40.7724 491.304 41.2393C490.943 41.7075 490.426 41.9403 489.752 41.9403C489.284 41.9403 488.894 41.8217 488.58 41.5859V43.9038H487.539ZM488.57 37.7521V40.8339C488.704 40.9621 488.872 41.0576 489.076 41.1224C489.279 41.1867 489.458 41.2188 489.611 41.2188C489.978 41.2188 490.267 41.0756 490.478 40.7876C490.688 40.4989 490.793 39.9755 490.793 39.2169C490.793 38.6001 490.685 38.1481 490.468 37.865C490.251 37.5793 489.969 37.4376 489.621 37.4376C489.228 37.4376 488.878 37.5421 488.57 37.7521ZM494.233 36.7161V41.8697H493.192V36.9697L494.233 36.7161ZM493.031 35.2207C493.031 35.0377 493.1 34.8773 493.236 34.7375C493.374 34.5987 493.532 34.5289 493.712 34.5289C493.893 34.5289 494.051 34.5987 494.188 34.7375C494.325 34.8773 494.393 35.0377 494.393 35.2207C494.393 35.4037 494.325 35.5652 494.188 35.7047C494.051 35.8423 493.893 35.912 493.712 35.912C493.532 35.912 493.374 35.8423 493.236 35.7047C493.1 35.5652 493.031 35.4037 493.031 35.2207ZM498.134 41.28C498.615 41.28 499.145 41.1037 499.726 40.7519V41.5245C499.192 41.8368 498.601 41.9926 497.953 41.9926C497.139 41.9926 496.54 41.7586 496.156 41.2906C495.772 40.8226 495.58 40.1689 495.58 39.3284C495.58 38.5282 495.777 37.8836 496.171 37.3972C496.565 36.9092 497.125 36.6638 497.853 36.6638C498.494 36.6638 498.991 36.8745 499.346 37.2952C499.699 37.7161 499.876 38.332 499.876 39.1452V39.5219H496.612C496.612 40.1254 496.735 40.5699 496.982 40.8528C497.229 41.1387 497.613 41.28 498.134 41.28ZM497.823 37.3462C497.51 37.3462 497.246 37.4717 497.032 37.7215C496.819 37.9727 496.685 38.3462 496.631 38.8395H498.925C498.898 38.3386 498.781 37.9651 498.574 37.7178C498.367 37.4697 498.117 37.3462 497.823 37.3462ZM501.203 41.8697V37.4171C502.024 36.9151 502.875 36.6638 503.757 36.6638C504.351 36.6638 504.774 36.7867 505.028 37.031C505.282 37.2752 505.409 37.6612 505.409 38.1894V41.8697H504.367V38.4234C504.367 38.0509 504.291 37.7997 504.137 37.6717C503.983 37.5421 503.76 37.4782 503.466 37.4782C503.066 37.4782 502.658 37.6007 502.245 37.8445V41.8697H501.203V41.8697ZM508.027 36.9092H509.61L509.359 37.6007H508.027V40.284C508.027 40.9621 508.315 41.3009 508.889 41.3009C509.109 41.3009 509.332 41.2538 509.56 41.1586V41.8087C509.246 41.9311 508.872 41.9926 508.438 41.9926C507.937 41.9926 507.57 41.8482 507.336 41.5593C507.103 41.2725 506.986 40.8942 506.986 40.4253V36.2375L508.027 35.4742V36.9092H508.027ZM511.648 36.7161V41.8697H510.606V36.9697L511.648 36.7161ZM510.446 35.2207C510.446 35.0377 510.515 34.8773 510.651 34.7375C510.788 34.5987 510.946 34.5289 511.127 34.5289C511.307 34.5289 511.466 34.5987 511.602 34.7375C511.74 34.8773 511.808 35.0377 511.808 35.2207C511.808 35.4037 511.74 35.5652 511.602 35.7047C511.466 35.8423 511.307 35.912 511.127 35.912C510.946 35.912 510.788 35.8423 510.651 35.7047C510.515 35.5652 510.446 35.4037 510.446 35.2207ZM518.738 37.0714V37.8837C518.237 37.5452 517.73 37.3764 517.216 37.3764C516.956 37.3764 516.742 37.4272 516.575 37.5291C516.408 37.63 516.324 37.7934 516.324 38.0159C516.324 38.2272 516.416 38.3945 516.6 38.5197C516.783 38.6455 517.072 38.7726 517.466 38.9005C517.687 38.9752 517.852 39.0332 517.962 39.0736C518.072 39.1153 518.217 39.1831 518.397 39.2774C518.578 39.3727 518.713 39.4667 518.803 39.5623C518.893 39.6575 518.975 39.7822 519.048 39.9386C519.122 40.0944 519.158 40.2667 519.158 40.4567C519.158 40.9247 518.973 41.2973 518.603 41.5753C518.232 41.8532 517.736 41.9926 517.116 41.9926C516.421 41.9926 515.843 41.8435 515.383 41.5443V40.752C515.97 41.1037 516.508 41.28 516.996 41.28C517.73 41.28 518.097 41.0368 518.097 40.5482C518.097 40.4537 518.075 40.3649 518.032 40.284C517.988 40.2028 517.938 40.1367 517.882 40.0856C517.825 40.0349 517.733 39.9775 517.606 39.9121C517.479 39.849 517.373 39.8018 517.286 39.7708C517.199 39.7405 517.062 39.6913 516.875 39.6237C516.601 39.5219 516.385 39.4341 516.224 39.3592C516.064 39.284 515.904 39.1878 515.744 39.0696C515.583 38.951 515.466 38.8093 515.393 38.6472C515.32 38.485 515.283 38.2913 515.283 38.0679C515.283 37.7831 515.35 37.5398 515.483 37.3369C515.617 37.1322 515.791 36.9866 516.004 36.8988C516.217 36.8104 516.413 36.749 516.59 36.7161C516.767 36.6811 516.942 36.6638 517.116 36.6638C517.683 36.6638 518.224 36.7997 518.738 37.0714ZM524.271 41.8697H523.319L523.249 41.28C522.674 41.755 522.101 41.9926 521.527 41.9926C521.046 41.9926 520.674 41.8624 520.41 41.6008C520.146 41.3399 520.015 41.0103 520.015 40.6094C520.015 40.399 520.053 40.1979 520.13 40.0046C520.207 39.8112 520.334 39.6237 520.51 39.4408C520.688 39.2575 520.954 39.1105 521.311 38.9981C521.669 38.8857 522.098 38.8301 522.598 38.8301H523.219V38.5557C523.219 38.1016 523.136 37.7925 522.97 37.6255C522.802 37.4594 522.521 37.3764 522.128 37.3764C521.647 37.3764 521.056 37.5754 520.355 37.9764V37.1632C521.076 36.8312 521.784 36.6638 522.478 36.6638C523.153 36.6638 523.619 36.8036 523.88 37.0821C524.14 37.3593 524.271 37.7801 524.271 38.3414V41.8697H524.271ZM523.23 39.5415H522.699C521.604 39.5415 521.056 39.8706 521.056 40.5282C521.056 40.7595 521.13 40.9255 521.276 41.0312C521.423 41.1366 521.606 41.1885 521.827 41.1885C522.107 41.1885 522.377 41.1207 522.638 40.9848C522.899 40.8501 523.096 40.6943 523.23 40.5179V39.5415H523.23ZM526.89 36.9092H528.472L528.221 37.6007H526.89V40.284C526.89 40.9621 527.177 41.3009 527.75 41.3009C527.971 41.3009 528.194 41.2538 528.422 41.1586V41.8087C528.108 41.9311 527.734 41.9926 527.299 41.9926C526.799 41.9926 526.432 41.8482 526.199 41.5593C525.965 41.2725 525.847 40.8942 525.847 40.4253V36.2375L526.89 35.4742V36.9092H526.89Z" fill="#C0DAEC"/>
<path d="M51.4369 6.13864H27.8501V44.3613H51.4369V6.13864Z" fill="#FF5F00"/>
<path d="M30.2795 25.2537C30.2736 17.7962 33.7241 10.7501 39.6367 6.14573C29.5921 -1.68648 15.1676 -0.545648 6.5004 8.76647C-2.1668 18.0786 -2.1668 32.4356 6.5004 41.7477C15.1676 51.0598 29.5921 52.2006 39.6367 44.3684C33.7222 39.7626 30.2715 32.7136 30.2795 25.2537Z" fill="#EB001B"/>
<path d="M76.4809 40.5842V39.7665H76.8183V39.6302H76.0086V39.7665H76.346V40.5842H76.4809Z" fill="#F79E1B"/>
<path d="M78.0337 39.6302H77.7638L77.4939 40.3117L77.224 39.6302H76.9541V40.5842H77.1565V39.8347L77.3809 40.448H77.6288L77.8458 39.8347V40.5842H78.0337V39.6302Z" fill="#F79E1B"/>
<path d="M79.277 25.2534C79.277 34.5598 73.9209 43.0492 65.484 47.1161C57.0471 51.1829 47.0105 50.1132 39.6367 44.3613C45.5467 39.753 48.9974 32.7079 48.9974 25.25C48.9974 17.7921 45.5467 10.747 39.6367 6.13866C47.0105 0.386756 57.0471 -0.682913 65.484 3.38394C73.9209 7.45079 79.277 15.9402 79.277 25.2466V25.2534Z" fill="#F79E1B"/>
<path d="M140.133 9.18943L124.495 45.8568H114.294L106.599 16.6C106.133 14.7962 105.728 14.1359 104.304 13.3777C101.984 12.1426 98.152 10.9809 94.7867 10.2594L95.0169 9.19555H111.439C113.529 9.19555 115.414 10.5651 115.886 12.9375L119.948 34.1541L129.994 9.19555L140.133 9.18943ZM180.099 33.8912C180.143 24.2122 166.483 23.6803 166.576 19.3575C166.607 18.0429 167.882 16.6428 170.669 16.2881C172.05 16.1108 175.863 15.9763 180.18 17.9268L181.878 10.1494C179.558 9.32395 176.566 8.52298 172.852 8.52298C163.317 8.52298 156.599 13.5061 156.543 20.6476C156.48 25.9242 161.332 28.8713 164.99 30.6261C168.753 32.4237 170.016 33.5793 169.997 35.1813C169.972 37.6392 166.999 38.7276 164.219 38.7704C159.367 38.8437 156.555 37.4802 154.31 36.453L152.562 44.4872C154.82 45.5022 158.981 46.3888 163.292 46.4377C173.437 46.4377 180.068 41.5096 180.099 33.8912ZM205.292 45.8629H214.218L206.424 9.18943H198.188C196.334 9.18943 194.773 10.2472 194.083 11.8797L179.602 45.8568H189.735L191.744 40.3784H204.129L205.292 45.8629ZM194.524 32.8701L199.606 19.1007L202.53 32.8701H194.524ZM153.918 9.18943L145.937 45.8568H136.289L144.27 9.18943H153.918Z" fill="white"/>
<path d="M344.314 32.2684C341.149 44.9645 328.29 52.6911 315.592 49.5251C302.9 46.3598 295.173 33.5 298.34 20.8046C301.504 8.10704 314.363 0.379626 327.057 3.54495C339.754 6.71027 347.48 19.5715 344.314 32.2684V32.2684Z" fill="#F7931A"/>
<path d="M331.776 23.159C332.248 20.0055 329.847 18.3103 326.564 17.1794L327.629 12.9076L325.028 12.2596L323.992 16.4188C323.308 16.2484 322.606 16.0877 321.908 15.9285L322.952 11.7419L320.354 11.0939L319.288 15.3642C318.722 15.2353 318.167 15.1079 317.628 14.9739L317.631 14.9606L314.045 14.0652L313.353 16.8424C313.353 16.8424 315.282 17.2845 315.241 17.3119C316.294 17.5749 316.485 18.2718 316.453 18.8242L315.24 23.6907C315.312 23.7093 315.407 23.7359 315.51 23.7774C315.424 23.7559 315.331 23.7322 315.235 23.7092L313.535 30.5265C313.406 30.8464 313.08 31.3263 312.343 31.1441C312.369 31.1819 310.453 30.6724 310.453 30.6724L309.163 33.6489L312.546 34.4924C313.176 34.6501 313.793 34.8153 314.4 34.9708L313.324 39.2915L315.921 39.9395L316.987 35.6648C317.696 35.8573 318.385 36.0351 319.059 36.2024L317.997 40.4572L320.597 41.1052L321.673 36.7927C326.107 37.6318 329.442 37.2933 330.845 33.283C331.976 30.054 330.789 28.1914 328.456 26.9768C330.155 26.585 331.435 25.4674 331.776 23.159V23.159ZM325.835 31.49C325.031 34.719 319.595 32.9734 317.832 32.5357L319.26 26.8116C321.022 27.2515 326.675 28.1225 325.835 31.49ZM326.639 23.1123C325.906 26.0495 321.381 24.5572 319.913 24.1914L321.208 18.9998C322.675 19.3656 327.403 20.0485 326.639 23.1123Z" fill="white"/>
<path d="M404.095 2.83575C390.572 2.83575 379.859 13.482 379.859 26.5324C379.859 39.5827 390.748 50.2291 404.095 50.2291C417.442 50.2291 428.33 39.5827 428.33 26.5324C428.505 13.482 417.442 2.83575 404.095 2.83575ZM404.095 35.2898C399.177 35.2898 394.962 31.3404 394.962 26.5324C394.962 21.7244 399.002 17.7749 404.095 17.7749C409.187 17.7749 413.227 21.7244 413.227 26.5324C413.051 31.3404 409.187 35.2898 404.095 35.2898Z" fill="white"/>
<path d="M379.859 9.87622V44.3909H371.253L360.19 9.87622H379.859Z" fill="white"/>
<path d="M239.456 38.9775V27.5553L229.384 33.3516L239.456 38.9775Z" fill="white"/>
<path d="M282.859 16.3037C282.493 15.1103 282.126 14.0874 281.577 12.8941C281.577 12.8941 281.577 12.7236 281.394 12.7236C280.845 11.5303 280.112 10.5074 279.196 9.48449C275.9 5.39299 270.772 2.83575 264.912 2.83575C264.179 2.83575 263.63 2.83571 262.897 3.00619C262.165 3.00619 261.432 3.1768 260.883 3.34728C259.601 3.68823 258.319 4.02907 257.037 4.71099C256.671 4.88147 256.488 5.05207 256.121 5.05207C254.656 5.73399 253.374 6.75678 252.276 7.95014C251.36 8.80253 250.444 9.82549 249.712 11.0189C249.529 11.1893 249.529 11.3597 249.346 11.5302C249.346 11.5302 249.345 11.7008 249.162 11.7008C248.979 12.0418 248.796 12.5531 248.43 12.8941C247.514 14.5989 246.965 16.4742 246.599 18.52C246.415 19.3724 246.415 20.2246 246.415 20.9065V22.9524V24.3161V26.5324V49.0356V50.2291H246.965H257.953V40.0004V39.4888V37.6136V37.4432V26.5324V26.362V25.8505V23.9752V23.6344V21.0772C257.953 20.9067 257.953 20.9066 257.953 20.7361C257.953 19.8837 258.136 19.0313 258.502 18.3493C259.418 15.7921 261.982 14.0874 264.729 14.0874C265.095 14.0874 265.461 14.0875 265.828 14.258C268.208 14.599 270.223 16.3037 271.138 18.6904C271.321 19.3723 271.505 20.0541 271.505 20.9065C271.505 21.9294 271.321 22.782 270.955 23.6344C270.406 24.8277 269.49 25.8505 268.208 26.5324C267.293 27.0439 266.377 27.3848 265.278 27.3848V30.2829V30.4535V33.5221V38.8069C269.673 38.6364 273.885 37.1021 276.999 34.3744C280.112 31.6468 282.309 27.8964 283.042 23.6344C283.042 23.2934 283.225 22.9523 283.225 22.6113C283.225 22.0999 283.225 21.418 283.225 20.7361C283.408 19.3723 283.225 17.838 282.859 16.3037Z" fill="white"/>
</svg>
